SplineFontDB: 3.2
FontName: SingScript.sg
FullName: SingScript.sg
FamilyName: SingScript.sg
Weight: Regular
Copyright: Copyright (c) 2025, 05524F.sg
UComments: "2025-2-24: Created with FontForge (http://fontforge.org)"
Version: Core+i
ItalicAngle: 0
UnderlinePosition: -90
UnderlineWidth: 45
Ascent: 600
Descent: 300
InvalidEm: 0
LayerCount: 2
Layer: 0 0 "Back" 1
Layer: 1 0 "Fore" 0
XUID: [1021 768 647112374 5903]
FSType: 0
OS2Version: 0
OS2_WeightWidthSlopeOnly: 0
OS2_UseTypoMetrics: 1
CreationTime: 1740441635
ModificationTime: 1741435236
PfmFamily: 33
TTFWeight: 400
TTFWidth: 5
LineGap: 81
VLineGap: 0
OS2TypoAscent: 0
OS2TypoAOffset: 1
OS2TypoDescent: 0
OS2TypoDOffset: 1
OS2TypoLinegap: 81
OS2WinAscent: 0
OS2WinAOffset: 1
OS2WinDescent: 0
OS2WinDOffset: 1
HheadAscent: 0
HheadAOffset: 1
HheadDescent: 0
HheadDOffset: 1
OS2Vendor: '5524'
Lookup: 258 0 0 "kern" { "kernsubtable"  } ['kern' ('DFLT' <'dflt' > 'latn' <'dflt' > ) ]
MarkAttachClasses: 1
DEI: 91125
KernClass2: 94+ 94 "kernsubtable"
 7 uni0041
 7 uni0042
 7 uni0043
 7 uni0044
 7 uni0045
 7 uni0046
 7 uni0047
 7 uni0048
 7 uni0049
 7 uni004A
 7 uni004B
 7 uni004C
 7 uni004D
 7 uni004E
 7 uni004F
 7 uni0050
 7 uni0051
 7 uni0052
 7 uni0053
 7 uni0054
 7 uni0055
 7 uni0056
 7 uni0057
 7 uni0058
 7 uni0059
 7 uni005A
 7 uni0061
 7 uni0062
 7 uni0063
 7 uni0064
 7 uni0065
 7 uni0066
 7 uni0067
 7 uni0068
 7 uni0069
 7 uni006A
 7 uni006B
 7 uni006C
 7 uni006D
 7 uni006E
 7 uni006F
 7 uni0070
 7 uni0071
 7 uni0072
 7 uni0073
 7 uni0076
 7 uni0074
 7 uni0075
 7 uni0077
 7 uni0078
 7 uni0079
 7 uni007A
 7 uni0030
 7 uni0031
 7 uni0032
 7 uni0033
 7 uni0034
 7 uni0035
 7 uni0036
 7 uni0037
 7 uni0038
 7 uni0039
 7 uni0021
 7 uni0022
 10 numbersign
 6 dollar
 7 percent
 9 ampersand
 11 quotesingle
 9 parenleft
 10 parenright
 8 asterisk
 4 plus
 5 comma
 6 hyphen
 6 period
 5 slash
 5 colon
 9 semicolon
 4 less
 5 equal
 7 greater
 8 question
 2 at
 11 bracketleft
 9 backslash
 12 bracketright
 11 asciicircum

StartChar: uni0041
Encoding: 32 65 0
Width: 341
Flags: W
HStem: 0 21G<50 66 273.5 291> 153 67<155.13 224> 447 20G<195.5 206>
LayerCount: 2
Fore
SplineSet
316 34 m 0
 316 16 300 0 282 0 c 0
 265 0 251 13 249 29 c 0
 246 54 243 65 233 154 c 1
 225 154 217 153 209 153 c 0
 181 152 154 152 132 147 c 1
 122 113 105 62 90 22 c 2
 85 9 73 0 59 0 c 0
 41 0 25 16 25 34 c 0
 25 38 27 41 28 45 c 0
 81 190 97 303 175 449 c 0
 177 452 186 467 205 467 c 0
 207 467 228 466 236 445 c 0
 280 328 290 244 302 138 c 0
 306 103 316 35 316 34 c 0
224 221 m 1
 218 262 211 301 199 344 c 1
 180 300 167 260 154 218 c 1
 172 220 190 220 207 220 c 0
 213 220 218 221 224 221 c 1
EndSplineSet
Validated: 1
EndChar

StartChar: uni0042
Encoding: 33 66 1
Width: 313
Flags: W
HStem: 0 73<95 134.365> 400 67<129.32 217.046>
VStem: 144 67<86.3594 130.229>
LayerCount: 2
Fore
SplineSet
72 0 m 0
 37 0 25 24 25 42 c 0
 25 52 66 423 66 427 c 0
 70 467 124 467 146 467 c 0
 178 467 288 463 288 402 c 0
 288 330 194 258 137 213 c 1
 164 185 174 175 187 155 c 0
 199 137 211 129 211 103 c 0
 211 82 206 56 157 28 c 0
 149 23 107 0 72 0 c 0
218 390 m 1
 214 391 188 400 146 400 c 0
 141 400 135 399 131 399 c 1
 126 354 122 321 118 284 c 1
 140 302 203 349 218 390 c 1
144 103 m 0
 139 118 113 142 103 152 c 1
 100 123 98 106 95 73 c 1
 96 73 130 85 144 101 c 0
 144 103 l 0
EndSplineSet
Validated: 1
EndChar

StartChar: uni0043
Encoding: 34 67 2
Width: 336
Flags: W
HStem: 0 68<96.3963 219.526> 31 71<208.318 292.844> 447 20G<272.5 286>
VStem: 25 67<73.1359 152.549>
LayerCount: 2
Fore
SplineSet
92 99 m 4xb0
 96 85 104 68 138 68 c 4xb0
 169 68 210 84 237 94 c 4
 254 101 257 102 264 102 c 4x70
 282 102 298 86 298 68 c 4xb0
 298 53 288 41 275 36 c 4
 272 35 268 33 262 31 c 4x70
 235 20 187 0 138 0 c 4
 119 0 98 4 79 14 c 4
 43 33 25 73 25 99 c 4
 25 177 155 362 254 458 c 4
 260 464 268 467 277 467 c 4
 295 467 311 452 311 434 c 4
 311 425 306 416 300 410 c 4
 221 333 133 208 102 134 c 4
 95 117 92 103 92 99 c 4xb0
92 98 m 5
 92 98 l 5
EndSplineSet
Validated: 1
EndChar

StartChar: uni0044
Encoding: 35 68 3
Width: 308
Flags: W
HStem: 0 21G<49 60.5> 400 67<118.269 192.106>
VStem: 216 67<249.023 377.357>
LayerCount: 2
Fore
SplineSet
58 0 m 0
 40 0 25 15 25 34 c 0
 25 37 31 292 59 440 c 0
 62 455 75 466 91 467 c 0
 96 467 100 467 105 467 c 0
 150 467 233 459 268 398 c 0
 277 382 283 354 283 333 c 0
 283 316 279 218 198 109 c 0
 162 60 117 19 69 2 c 0
 67 1 63 0 58 0 c 0
94 95 m 1
 171 160 216 277 216 333 c 0
 216 348 211 375 179 388 c 0
 163 395 143 399 121 400 c 1
 106 307 98 168 94 95 c 1
EndSplineSet
Validated: 1
EndChar

StartChar: uni0045
Encoding: 36 69 4
Width: 329
Flags: W
HStem: 0 67<92 248.069> 168 68<104 273.515> 400 67<126.403 299.74>
VStem: 25 67<67 162.276>
LayerCount: 2
Fore
SplineSet
92 67 m 1
 155 69 230 86 249 86 c 0
 267 86 283 70 283 52 c 0
 283 35 269 21 252 19 c 0
 234 17 216 14 198 12 c 0
 162 7 124 0 76 0 c 0
 70 0 64 0 58 0 c 0
 40 0 26 15 26 33 c 0
 26 40 25 47 25 55 c 0
 25 208 62 430 62 431 c 0
 64 444 74 455 87 458 c 0
 133 469 171 467 208 467 c 0
 222 467 222 467 271 465 c 0
 289 464 304 450 304 432 c 0
 304 414 288 399 270 399 c 0
 269 399 l 2
 221 400 221 400 208 400 c 0
 180 400 155 404 125 398 c 1
 120 366 111 305 104 236 c 1
 243 236 l 2
 261 236 277 220 277 202 c 0
 277 184 261 168 243 168 c 2
 97 168 l 1
 94 134 92 98 92 67 c 1
EndSplineSet
Validated: 33
EndChar

StartChar: uni0046
Encoding: 37 70 5
Width: 298
Flags: W
HStem: 0 21G<53 71> 207 67<93 256.876> 400 67<102.181 268.972>
VStem: 25 67<5.10321 207.581 273 391.079>
LayerCount: 2
Fore
SplineSet
92 188 m 0
 92 101 96 36 96 34 c 0
 96 16 80 0 62 0 c 0
 44 0 30 14 29 32 c 0
 26 91 25 133 25 188 c 0
 25 266 28 343 36 426 c 0
 37 441 49 454 64 456 c 0
 65 456 134 467 200 467 c 0
 215 467 229 466 243 465 c 0
 260 463 273 449 273 432 c 0
 273 414 258 398 240 398 c 0
 236 398 225 400 200 400 c 0
 164 400 126 396 101 393 c 1
 98 352 94 312 93 273 c 1
 109 274 124 275 138 275 c 0
 160 275 180 274 203 274 c 0
 215 274 226 274 226 274 c 0
 244 274 260 259 260 241 c 0
 260 223 246 208 228 207 c 0
 219 207 211 207 203 207 c 0
 198 207 139 208 138 208 c 0
 124 208 109 208 92 206 c 1
 92 200 92 194 92 188 c 0
EndSplineSet
Validated: 1
EndChar

StartChar: uni0047
Encoding: 38 71 6
Width: 319
Flags: W
HStem: 0 21G<229.5 241> 19 67<92 197.083> 38 68<95.6638 199> 135 86<147.371 201.979> 403 64<238.699 290.515>
VStem: 25 67<86.0004 228.344> 199 67<3.5769 38 102.755 148.353>
LayerCount: 2
Fore
SplineSet
199 38 m 1xbe
 158 31 124 19 91 19 c 0
 72 19 44 24 31 51 c 0
 26 62 25 69 25 100 c 0
 25 227 65 380 246 464 c 0
 250 466 255 467 260 467 c 0
 278 467 294 451 294 433 c 0
 294 420 286 408 274 403 c 0
 204 370 92 303 92 100 c 0
 92 95 92 91 92 86 c 1x5e
 117 87 165 102 203 106 c 1
 203 112 204 118 204 124 c 0
 204 132 203 141 202 149 c 1
 202 149 173 140 162 137 c 0
 159 136 157 135 154 135 c 0
 136 135 120 151 120 169 c 0
 120 185 132 197 146 201 c 0
 168 207 196 221 220 221 c 0
 225 221 255 219 262 190 c 0
 268 166 271 144 271 124 c 0
 271 101 266 35 266 34 c 0
 266 16 250 0 232 0 c 0
 227 0 199 2 199 35 c 0
 199 36 199 37 199 38 c 1xbe
EndSplineSet
Validated: 1
EndChar

StartChar: uni0048
Encoding: 39 72 7
Width: 299
Flags: W
HStem: 0 21G<50 68 213 231> 447 20G<56 74 231 249>
VStem: 25 67<3.65208 167.895> 29 67<35.292 172.875 238 462.579> 188 67<3.48541 178.351>
LayerCount: 2
Fore
SplineSet
65 467 m 0xd8
 83 467 99 452 99 434 c 0
 99 410 98 343 96 238 c 1xd8
 97 238 186 250 198 251 c 1
 200 308 203 364 207 435 c 0
 208 453 222 467 240 467 c 0
 258 467 274 451 274 433 c 0
 274 431 270 393 264 230 c 0
 262 167 259 111 255 32 c 0
 254 14 240 0 222 0 c 0
 204 0 188 16 188 34 c 0
 188 36 192 83 196 183 c 1
 195 183 108 172 94 170 c 1
 93 125 92 86 92 33 c 0
 92 15 77 0 59 0 c 0
 41 0 25 16 25 34 c 0xe8
 25 61 27 124 29 232 c 0
 30 296 32 357 32 434 c 0
 32 452 47 467 65 467 c 0xd8
EndSplineSet
Validated: 1
EndChar

StartChar: uni0049
Encoding: 40 73 8
Width: 449
Flags: W
HStem: -9 156<70.7954 128> 0 65<353.313 420.45> 399 68<239.178 379.707>
LayerCount: 2
Fore
SplineSet
173 395 m 1xa0
 142 392 89 385 88 385 c 0
 70 385 54 401 54 419 c 0
 54 436 67 450 83 452 c 0
 166 463 222 467 292 467 c 0
 310 467 329 466 350 466 c 0
 368 466 383 451 383 433 c 0
 383 415 368 399 350 399 c 0
 349 399 l 2
 328 399 310 400 292 400 c 0
 274 400 257 400 241 399 c 1
 237 360 236 336 233 303 c 0
 229 247 226 202 215 137 c 1
 277 120 343 86 401 65 c 2
 414 60 424 49 424 34 c 0
 424 16 408 0 390 0 c 0x60
 369 0 267 52 200 71 c 1
 179 22 128 -9 95 -9 c 0xa0
 56 -9 25 31 25 65 c 0x60
 25 76 28 89 37 99 c 0
 66 134 106 147 145 147 c 0
 146 147 148 147 149 147 c 0
 159 209 162 251 166 308 c 0
 168 338 169 359 173 395 c 1xa0
94 62 m 0
 95 61 96 60 97 59 c 0
 102 61 115 65 127 79 c 1
 114 77 103 71 94 62 c 0
EndSplineSet
Validated: 1
EndChar

StartChar: uni004A
Encoding: 41 74 9
Width: 287
Flags: W
HStem: 0 67<75.5312 151.328> 447 20G<219 237>
VStem: 190 72<164.12 461.247>
LayerCount: 2
Fore
SplineSet
59 90 m 0
 74 90 122 68 145 67 c 1
 187 170 186 240 190 341 c 0
 191 372 192 400 195 436 c 0
 196 453 210 467 228 467 c 0
 246 467 262 451 262 433 c 0
 262 432 260 414 257 338 c 0
 253 236 253 154 205 38 c 0
 200 26 185 0 146 0 c 0
 125 0 104 7 77 16 c 0
 68 19 59 21 50 24 c 0
 36 28 25 42 25 57 c 0
 25 75 41 90 59 90 c 0
EndSplineSet
Validated: 1
EndChar

StartChar: uni004B
Encoding: 42 75 10
Width: 350
Flags: W
HStem: 0 21G<50 68> 447 20G<71 89>
VStem: 25 67<3.48541 144.5> 47 67<290.058 463.515> 261 64<409.836 459.515>
LayerCount: 2
Fore
SplineSet
80 467 m 0xd8
 98 467 114 451 114 433 c 0xd8
 114 432 114 436 106 283 c 1
 151 310 223 359 261 443 c 0
 266 455 277 463 291 463 c 0
 309 463 325 447 325 429 c 0
 325 424 323 419 321 415 c 0
 270 304 176 246 130 219 c 1
 168 182 256 123 311 61 c 0
 316 55 319 48 319 39 c 0
 319 21 304 6 286 6 c 0
 276 6 267 10 261 17 c 0
 218 65 140 122 99 157 c 1
 92 32 l 2
 91 14 77 0 59 0 c 0
 41 0 25 16 25 34 c 0xe8
 25 35 26 17 47 435 c 0
 48 453 62 467 80 467 c 0xd8
EndSplineSet
Validated: 1
EndChar

StartChar: uni004C
Encoding: 43 76 11
Width: 283
Flags: W
HStem: 0 67<95.4955 253.579> 447 20G<88.5 106>
VStem: 25 233<12.8326 60.4628>
LayerCount: 2
Fore
SplineSet
133 67 m 0
 169 67 220 69 225 69 c 0
 243 69 258 54 258 36 c 0
 258 18 244 3 226 2 c 0
 154 0 154 0 133 0 c 0
 78 0 55 4 40 16 c 0
 34 21 25 32 25 46 c 0
 25 47 25 47 25 48 c 0
 33 182 44 281 64 438 c 0
 66 455 80 467 97 467 c 0
 115 467 131 451 131 433 c 0
 131 429 105 245 94 68 c 1
 104 67 118 67 133 67 c 0
EndSplineSet
Validated: 1
EndChar

StartChar: uni004D
Encoding: 44 77 12
Width: 462
Flags: W
HStem: 0 21G<50 65.5 386 403.5> 447 20G<190.5 201 377.5 405.5>
VStem: 25 64<3.51229 58.037> 334 98<298.561 446.017> 370 67<34.1507 243.904>
LayerCount: 2
Fore
SplineSet
259 117 m 0xe8
 199 117 185 194 179 255 c 1
 157 183 127 94 89 18 c 0
 84 7 72 0 59 0 c 0
 41 0 25 16 25 34 c 0
 25 39 27 43 29 48 c 0
 82 154 119 295 141 373 c 0
 157 432 161 441 170 453 c 0
 174 458 183 467 198 467 c 0
 204 467 228 466 235 434 c 0
 244 396 238 230 262 186 c 1
 271 191 282 208 291 227 c 0
 309 267 323 334 334 379 c 0
 344 422 348 439 356 450 c 0
 359 454 368 467 387 467 c 0
 424 467 429 422 432 390 c 0xf0
 436 352 437 291 437 233 c 0
 437 167 433 87 428 30 c 0
 426 13 412 0 395 0 c 0
 377 0 361 16 361 34 c 0
 361 36 370 116 370 233 c 0
 370 238 370 241 370 246 c 1
 353 196 322 117 259 117 c 0xe8
EndSplineSet
Validated: 1
EndChar

StartChar: uni004E
Encoding: 45 78 13
Width: 380
Flags: W
HStem: 0 21G<50 67 239 284> 447 20G<110.5 145 313 331>
VStem: 25 67<3.55803 155.375> 289 66<221.439 464.05>
LayerCount: 2
Fore
SplineSet
59 0 m 0
 41 0 25 16 25 34 c 0
 25 36 26 38 26 40 c 0
 54 185 64 404 76 437 c 0
 83 456 102 467 119 467 c 0
 171 467 191 384 231 222 c 0
 241 180 252 134 261 104 c 1
 266 125 270 156 274 184 c 0
 284 260 289 364 289 434 c 0
 289 452 304 467 322 467 c 0
 340 467 355 452 355 434 c 0
 355 352 349 231 336 146 c 0
 324 66 307 0 261 0 c 0
 217 0 202 60 166 206 c 0
 151 267 140 314 130 346 c 1
 115 180 108 110 92 27 c 0
 89 12 75 0 59 0 c 0
EndSplineSet
Validated: 1
EndChar

StartChar: uni004F
Encoding: 46 79 14
Width: 473
Flags: W
HStem: 0 68<127.197 276.497> 400 67<189.438 355.376>
VStem: 25 67<98.1266 292.407> 381 67<218.857 375.89>
LayerCount: 2
Fore
SplineSet
381 315 m 0
 381 377 348 400 285 400 c 0
 284 400 284 400 283 400 c 0
 185 399 144 354 125 321 c 0
 103 283 92 233 92 179 c 0
 92 161 94 142 96 123 c 0
 100 93 153 68 204 68 c 0
 246 68 284 83 307 115 c 0
 327 144 349 183 363 223 c 0
 374 255 381 288 381 315 c 0
285 467 m 0
 345 467 391 448 419 412 c 0
 441 384 448 349 448 315 c 0
 448 232 404 135 362 76 c 0
 323 21 260 0 203 0 c 4
 112 0 37 50 29 116 c 0
 27 137 25 158 25 179 c 0
 25 241 36 303 67 355 c 0
 98 408 161 466 282 467 c 0
 283 467 284 467 285 467 c 0
EndSplineSet
Validated: 1
EndChar

StartChar: uni0050
Encoding: 47 80 15
Width: 324
Flags: W
HStem: 0 21G<50 68> 220 67<120 201.114> 400 67<136.845 228.787>
VStem: 25 86<25.7624 218.073> 232 67<320.475 392.352>
LayerCount: 2
Fore
SplineSet
184 467 m 0
 251 467 299 424 299 374 c 0
 299 361 288 300 255 263 c 0
 227 233 187 220 141 220 c 0
 131 220 121 220 111 221 c 1
 103 160 96 85 92 31 c 0
 91 14 77 0 59 0 c 0
 41 0 25 16 25 34 c 0
 25 70 62 382 77 420 c 0
 81 431 87 435 90 437 c 0
 121 458 154 467 184 467 c 0
141 287 m 0
 190 287 217 305 232 371 c 0
 232 372 232 373 232 374 c 0
 232 385 212 400 184 400 c 0
 180 399 154 396 137 387 c 1
 133 370 126 330 120 287 c 1
 128 286 135 287 141 287 c 0
EndSplineSet
Validated: 1
EndChar

StartChar: uni0051
Encoding: 48 81 16
Width: 373
Flags: W
HStem: 0 21G<310 324> 36 67<92.3391 158.672> 400 67<196.539 239.595>
VStem: 241 67<249.141 399.853>
LayerCount: 2
Fore
SplineSet
238 467 m 0
 272 467 308 448 308 366 c 0
 308 319 297 262 280 209 c 0
 273 188 265 169 256 150 c 1
 300 99 315 84 340 56 c 0
 345 50 348 42 348 33 c 0
 348 15 333 0 315 0 c 0
 305 0 296 4 290 11 c 0
 265 39 241 66 220 90 c 1
 190 54 156 36 122 36 c 0
 67 36 25 83 25 120 c 0
 25 153 46 311 128 407 c 0
 157 441 193 467 238 467 c 0
92 122 m 0
 93 121 103 103 122 103 c 0
 131 103 151 108 175 142 c 1
 165 153 156 164 145 176 c 0
 140 182 136 189 136 198 c 0
 136 216 151 232 169 232 c 0
 179 232 188 228 194 221 c 0
 198 216 203 211 207 206 c 1
 229 262 241 326 241 366 c 0
 241 382 239 394 237 400 c 1
 175 398 103 260 92 122 c 0
EndSplineSet
Validated: 1
EndChar

StartChar: uni0052
Encoding: 49 82 17
Width: 340
Flags: W
HStem: 0 21G<50 68 236 251> 400 67<119.406 220.264>
VStem: 25 67<3.48541 146 196 353.987> 248 67<286.542 374.518>
LayerCount: 2
Fore
SplineSet
248 336 m 0
 248 348 246 360 231 373 c 0
 208 393 165 400 136 400 c 0
 130 400 125 400 121 399 c 0
 101 313 99 262 98 196 c 1
 104 202 110 206 127 214 c 0
 171 236 248 277 248 336 c 0
315 336 m 0
 315 242 218 186 172 162 c 1
 222 109 245 90 270 52 c 0
 274 47 275 40 275 33 c 0
 275 15 260 0 242 0 c 0
 230 0 220 6 214 15 c 0
 177 70 113 124 97 146 c 1
 97 112 94 78 92 32 c 0
 91 14 77 0 59 0 c 0
 41 0 25 16 25 34 c 0
 25 35 29 59 30 153 c 0
 31 243 31 309 58 423 c 0
 61 437 75 467 136 467 c 0
 199 467 315 436 315 336 c 0
EndSplineSet
Validated: 1
EndChar

StartChar: uni0053
Encoding: 50 83 18
Width: 371
Flags: W
HStem: 0 66<98.9163 199.55> 401 66<259.771 342.404>
VStem: 101 67<267.281 343.234> 223 67<92.7107 161.249>
LayerCount: 2
Fore
SplineSet
312 467 m 0
 330 467 346 451 346 433 c 0
 346 418 336 405 322 401 c 0
 290 391 243 381 210 361 c 0
 183 344 170 328 168 315 c 0
 168 312 168 310 168 308 c 0
 168 248 290 217 290 141 c 0
 290 135 289 129 287 123 c 0
 274 72 244 0 162 0 c 0
 126 0 87 13 41 42 c 0
 32 48 25 58 25 70 c 0
 25 88 41 104 59 104 c 0
 66 104 72 101 77 98 c 0
 117 73 145 66 162 66 c 0
 193 66 210 91 223 141 c 0
 223 146 210 159 184 180 c 0
 148 209 101 248 101 308 c 0
 101 389 185 431 302 466 c 0
 305 467 309 467 312 467 c 0
EndSplineSet
Validated: 1
EndChar

StartChar: uni0054
Encoding: 51 84 19
Width: 397
Flags: W
HStem: 0 21G<145 162.5> 400 67<221 366.451>
VStem: 117 70<2.96353 154.673> 150 71<179.214 397>
LayerCount: 2
Fore
SplineSet
154 397 m 1xd0
 119 394 59 387 58 387 c 0
 40 387 25 402 25 420 c 0
 25 437 37 451 54 453 c 0
 126 462 178 467 235 467 c 0
 267 467 302 466 341 463 c 0
 358 462 372 447 372 429 c 0
 372 411 356 396 338 396 c 0
 337 396 337 396 336 396 c 2
 298 399 265 400 235 400 c 0
 230 400 226 400 221 400 c 1xd0
 212 221 210 167 187 28 c 0
 184 12 171 0 154 0 c 0
 136 0 117 9 117 27 c 0xe0
 117 29 121 37 121 39 c 2
 143 175 144 245 150 378 c 0
 150 386 154 389 154 397 c 1xd0
EndSplineSet
Validated: 1
EndChar

StartChar: uni0055
Encoding: 52 85 20
Width: 314
Flags: W
HStem: 0 65<106.777 149.82> 447 20G<66.5 84 247 265>
VStem: 25 67<73.2951 412.426> 223 66<235.668 464.05>
LayerCount: 2
Fore
SplineSet
109 433 m 0
 109 421 92 289 92 196 c 0
 92 160 94 99 111 73 c 0
 116 66 118 65 120 65 c 0
 145 65 172 110 189 171 c 0
 213 254 222 371 223 434 c 0
 223 452 238 467 256 467 c 0
 274 467 289 452 289 434 c 0
 289 387 280 142 203 44 c 0
 188 25 161 0 121 0 c 0
 26 0 25 144 25 196 c 0
 25 264 33 346 39 406 c 0
 40 417 41 428 42 437 c 0
 44 454 58 467 75 467 c 0
 93 467 109 451 109 433 c 0
EndSplineSet
Validated: 1
EndChar

StartChar: uni0056
Encoding: 53 86 21
Width: 389
Flags: W
HStem: 0 21G<184 188.5> 447 20G<50 66 322.5 339>
LayerCount: 2
Fore
SplineSet
25 433 m 0
 25 451 41 467 59 467 c 0
 73 467 85 458 90 446 c 0
 120 370 146 250 171 175 c 0
 178 153 185 132 191 114 c 1
 216 181 265 352 298 445 c 0
 303 458 315 467 330 467 c 0
 348 467 364 451 364 433 c 0
 364 429 363 426 362 422 c 0
 344 371 321 292 304 239 c 0
 242 49 227 9 196 1 c 0
 193 0 190 0 187 0 c 0
 181 0 170 2 161 11 c 0
 151 22 145 38 107 154 c 0
 82 229 57 349 28 421 c 0
 26 425 25 429 25 433 c 0
EndSplineSet
Validated: 1
EndChar

StartChar: uni0057
Encoding: 54 87 22
Width: 611
Flags: W
HStem: 0 21G<152.5 191.5 394 444.5> 447 20G<50 67 544.5 561>
VStem: 25 67<349.229 463.442>
LayerCount: 2
Fore
SplineSet
25 433 m 0
 25 451 41 467 59 467 c 0
 75 467 89 455 92 440 c 0
 117 320 151 149 176 83 c 1
 215 160 239 334 273 382 c 0
 282 395 295 404 312 404 c 0
 325 404 346 398 362 367 c 0
 392 308 400 154 419 86 c 1
 443 135 468 239 492 332 c 0
 501 367 511 412 520 443 c 0
 524 457 537 467 552 467 c 0
 570 467 586 451 586 433 c 0
 586 430 585 427 584 424 c 0
 575 394 565 350 556 315 c 0
 503 113 475 0 414 0 c 0
 374 0 361 47 356 64 c 0
 338 127 329 246 313 306 c 1
 293 242 273 138 245 72 c 0
 236 50 213 0 170 0 c 0
 135 0 118 29 90 134 c 0
 68 215 47 330 26 427 c 0
 26 429 25 431 25 433 c 0
EndSplineSet
Validated: 1
EndChar

StartChar: uni0058
Encoding: 55 88 23
Width: 427
Flags: W
HStem: 0 21G<49 63 307.5 322> 447 20G<108 124 364 378>
VStem: 83 65<401.918 463.515>
LayerCount: 2
Fore
SplineSet
25 33 m 0
 25 59 35 42 167 225 c 1
 144 279 113 357 86 420 c 0
 84 424 83 428 83 433 c 0
 83 451 99 467 117 467 c 0
 131 467 143 459 148 447 c 0
 167 403 212 291 213 289 c 1
 249 338 289 390 344 455 c 0
 350 462 359 467 369 467 c 0
 387 467 402 452 402 434 c 0
 402 426 400 418 395 412 c 0
 329 335 287 276 244 217 c 1
 270 161 296 113 340 53 c 0
 344 47 346 40 346 33 c 0
 346 15 331 0 313 0 c 0
 302 0 292 6 286 14 c 0
 248 66 223 108 199 156 c 1
 166 111 132 69 83 12 c 0
 77 5 68 0 58 0 c 0
 40 0 25 15 25 33 c 0
EndSplineSet
Validated: 1
EndChar

StartChar: uni0059
Encoding: 56 89 24
Width: 313
Flags: W
HStem: 0 21G<138 156> 447 20G<50 66 248.5 263>
VStem: 25 65<393.504 463.515> 119 67<7.10802 247.173>
LayerCount: 2
Fore
SplineSet
113 51 m 0
 113 107 119 142 119 186 c 0
 119 201 119 213 117 232 c 1
 87 252 71 297 52 354 c 0
 44 377 37 400 28 421 c 0
 26 425 25 429 25 433 c 0
 25 451 41 467 59 467 c 0
 73 467 85 458 90 446 c 0
 114 388 131 321 149 294 c 1
 170 324 189 399 227 453 c 0
 233 462 243 467 254 467 c 0
 272 467 288 452 288 434 c 0
 288 427 286 419 282 414 c 0
 242 357 225 264 184 233 c 1
 186 214 186 197 186 181 c 0
 186 133 180 104 180 51 c 0
 180 42 180 34 180 34 c 0
 180 16 165 0 147 0 c 0
 129 0 114 15 114 33 c 0
 114 39 113 45 113 51 c 0
EndSplineSet
Validated: 1
EndChar

StartChar: uni005A
Encoding: 57 90 25
Width: 378
Flags: W
HStem: 0 67<97.3245 290.252> 400 67<67.1329 282.19>
LayerCount: 2
Fore
SplineSet
206 400 m 0
 149 400 81 393 80 393 c 0
 62 393 47 409 47 427 c 0
 47 444 60 458 77 460 c 0
 113 463 161 467 206 467 c 0
 276 467 303 459 316 453 c 0
 329 447 353 433 353 405 c 0
 353 403 352 401 352 399 c 0
 340 305 255 232 182 162 c 0
 141 123 108 92 96 69 c 1
 104 68 114 67 126 67 c 0
 179 67 258 77 303 90 c 0
 306 91 309 91 312 91 c 0
 330 91 345 75 345 57 c 0
 345 42 335 29 321 25 c 0
 267 10 186 0 126 0 c 0
 70 0 25 6 25 57 c 0
 25 104 74 151 135 210 c 0
 196 269 266 327 283 393 c 1
 262 399 226 400 206 400 c 0
EndSplineSet
Validated: 1
EndChar

StartChar: uni0061
Encoding: 64 97 26
Width: 319
Flags: W
HStem: 0 67<92 128.704> 233 67<147.18 208.504>
VStem: 25 67<67.0707 163.553> 205 67<135.244 231.918> 230 64<3.51229 67.0236>
LayerCount: 2
Fore
SplineSet
214 68 m 1xe8
 189 44 137 0 92 0 c 0
 64 0 25 18 25 81 c 0
 25 83 28 177 76 239 c 0
 106 277 150 300 201 300 c 0
 217 300 233 298 250 294 c 0
 255 293 260 290 264 287 c 0
 273 281 280 270 280 258 c 0
 280 251 272 201 272 151 c 0xf0
 272 105 275 77 290 49 c 0
 293 44 294 40 294 34 c 0
 294 16 278 0 260 0 c 0
 247 0 236 7 230 18 c 0
 220 37 219 47 214 68 c 1xe8
201 233 m 0
 100 233 92 83 92 81 c 0
 92 74 92 69 93 67 c 0
 97 67 121 77 152 103 c 0
 175 122 178 126 192 143 c 0
 196 148 200 153 205 160 c 1
 205 182 206 210 209 233 c 1
 206 233 204 233 201 233 c 0
EndSplineSet
Validated: 1
EndChar

StartChar: uni0062
Encoding: 65 98 27
Width: 289
Flags: W
HStem: 0 21G<59 114.5> 233 67<139.231 192.951> 447 20G<60 78>
VStem: 25 68<67 168.69> 36 67<274.17 463.56> 197 67<141.884 231.106>
LayerCount: 2
Fore
SplineSet
197 205 m 0xf4
 197 208 198 222 190 230 c 0
 188 231 187 233 181 233 c 0
 134 233 99 172 93 67 c 1
 108 68 116 76 147 108 c 0
 153 114 160 121 167 128 c 0
 185 147 197 179 197 205 c 0xf4
59 2 m 0
 45 2 25 11 25 38 c 0
 25 40 25 42 25 45 c 0
 25 49 25 53 25 59 c 0
 25 64 25 69 25 74 c 0xf4
 25 171 26 172 36 435 c 0
 37 453 51 467 69 467 c 4
 87 467 103 452 103 434 c 0xec
 103 432 97 309 96 271 c 1
 108 282 140 300 181 300 c 0
 228 300 264 269 264 205 c 0
 264 162 248 115 215 81 c 0
 208 74 202 67 196 61 c 0
 167 30 139 0 90 0 c 0
 59 2 l 0
EndSplineSet
Validated: 1
EndChar

StartChar: uni0063
Encoding: 66 99 28
Width: 273
Flags: W
HStem: 0 67<92.8532 242.897> 280 20G<205 216>
VStem: 25 67<76.0476 152.187>
LayerCount: 2
Fore
SplineSet
180 67 m 0
 201 67 207 70 214 70 c 0
 232 70 248 55 248 37 c 0
 248 21 236 7 221 4 c 0
 208 1 194 0 180 0 c 0
 126 0 29 7 26 68 c 0
 26 72 25 77 25 81 c 0
 25 190 101 267 197 298 c 0
 200 299 203 300 207 300 c 0
 225 300 241 284 241 266 c 0
 241 251 231 239 217 235 c 0
 144 212 92 157 92 81 c 0
 92 79 91 77 92 76 c 0
 106 65 145 67 180 67 c 0
EndSplineSet
Validated: 33
EndChar

StartChar: uni0064
Encoding: 67 100 29
Width: 312
Flags: W
HStem: 0 67<97.6252 173.262> 233 67<119.953 204.458> 447 20G<244.5 262.5>
VStem: 25 67<68.9563 199.045> 207 71<93.552 213.904 286 426.939>
LayerCount: 2
Fore
SplineSet
278 207 m 0
 278 123 283 43 283 34 c 0
 283 16 267 0 249 0 c 0
 231 0 216 15 215 33 c 1
 200 25 186 21 180 18 c 0
 156 7 133 0 109 0 c 0
 76 0 25 18 25 101 c 0
 25 131 34 195 55 236 c 0
 63 251 88 300 149 300 c 0
 168 300 187 294 207 286 c 1
 211 366 220 437 220 437 c 4
 222 454 236 467 253 467 c 4
 272 467 287 451 287 433 c 4
 287 431 278 310 278 207 c 0
207 133 m 0
 207 134 205 167 205 204 c 0
 205 207 208 212 205 214 c 0
 179 227 161 233 149 233 c 0
 135 233 111 229 96 139 c 0
 93 124 92 111 92 101 c 0
 92 97 92 72 101 68 c 0
 102 67 105 67 109 67 c 0
 118 67 134 71 153 79 c 0
 158 81 162 83 166 84 c 0
 193 94 207 102 207 133 c 0
EndSplineSet
Validated: 1
EndChar

StartChar: uni0065
Encoding: 68 101 30
Width: 284
Flags: W
HStem: 0 67<99.3217 199.631> 280 20G<152.5 178>
VStem: 163 67<168.474 230.684>
LayerCount: 2
Fore
SplineSet
99 76 m 5
 104 68 112 67 127 67 c 4
 141 67 166 68 209 91 c 4
 214 94 219 95 225 95 c 4
 243 95 259 79 259 61 c 4
 259 48 252 37 241 31 c 4
 191 4 155 0 127 0 c 4
 111 0 94 3 78 11 c 4
 37 33 25 72 25 107 c 4
 25 123 26 138 30 152 c 4
 43 206 63 276 139 298 c 4
 144 299 150 300 155 300 c 4
 201 300 230 252 230 204 c 4
 230 190 227 174 219 160 c 4
 198 122 161 82 99 76 c 5
163 204 m 4
 163 212 159 222 152 232 c 5
 123 221 110 194 97 144 c 5
 120 148 143 160 161 192 c 4
 161 193 163 198 163 204 c 4
EndSplineSet
Validated: 1
EndChar

StartChar: uni0066
Encoding: 69 102 31
Width: 354
Flags: W
HStem: 0 21G<124 142> 221 67<28.4854 59 181 294.93> 280 20G<294.5 304> 400 67<208.651 254.086>
VStem: 99 67<3.48541 94.7892> 102 67<34.0464 224>
LayerCount: 2
Fore
SplineSet
106 224 m 1xb4
 91 223 59 221 59 221 c 0
 41 221 25 236 25 254 c 0
 25 272 40 287 57 288 c 0xd4
 77 289 95 290 112 291 c 1
 121 358 142 433 196 456 c 0
 212 463 226 467 241 467 c 0
 258 467 273 460 284 451 c 0
 296 440 309 420 309 406 c 0
 309 388 294 372 276 372 c 0
 263 372 252 380 246 391 c 0
 243 396 242 399 241 400 c 0
 239 400 232 399 223 395 c 0
 216 392 194 375 181 294 c 1
 261 297 294 300 295 300 c 0
 313 300 329 284 329 266 c 0
 329 248 315 234 297 233 c 0
 251 230 218 229 173 227 c 1
 170 182 170 142 169 96 c 0xb4
 168 70 167 55 166 32 c 0
 165 14 151 0 133 0 c 0
 115 0 99 16 99 34 c 0xb8
 99 35 101 35 102 98 c 0
 103 141 103 178 106 224 c 1xb4
EndSplineSet
Validated: 1
EndChar

StartChar: uni0067
Encoding: 70 103 32
Width: 352
Flags: W
HStem: -233 67<114.96 165.298> 0 66<161.879 216> 280 20G<241 276.5>
VStem: 93 68<80 144.8>
LayerCount: 2
Fore
SplineSet
161 80 m 0
 161 80 186 66 211 66 c 0
 214 66 216 67 217 67 c 0
 228 77 237 102 242 123 c 0
 248 159 253 195 257 227 c 1
 216 209 166 150 161 80 c 0
93 69 m 0
 93 201 206 300 276 300 c 0
 277 300 327 292 327 258 c 0
 327 254 321 176 307 109 c 0
 293 41 262 -130 214 -197 c 0
 208 -206 187 -233 151 -233 c 4
 115 -233 82 -208 38 -173 c 0
 30 -167 25 -157 25 -146 c 0
 25 -128 41 -113 59 -113 c 0
 67 -113 74 -115 80 -120 c 0
 97 -133 136 -166 151 -166 c 0
 152 -166 l 0
 154 -166 182 -140 216 0 c 1
 214 0 213 0 211 0 c 0
 173 0 93 21 93 69 c 0
EndSplineSet
Validated: 1
EndChar

StartChar: uni0068
Encoding: 71 104 33
Width: 334
Flags: W
HStem: 0 21G<49.5 65.5 258 276> 280 20G<194 221.5> 447 20G<98 116>
VStem: 25 65<3.2926 74.375> 74 64<279.25 464.219> 234 66<3.12434 157.032> 242 67<21.9819 230.294>
LayerCount: 2
Fore
SplineSet
59 0 m 0xf2
 40 0 25 15 25 33 c 0xf2
 25 45 53 118 59 145 c 0
 78 236 66 315 74 436 c 0
 75 454 89 467 107 467 c 0
 125 467 141 451 141 433 c 0
 141 432 138 400 138 309 c 0
 138 299 138 289 138 279 c 1
 147 284 176 300 212 300 c 0
 231 300 257 296 274 274 c 0
 302 239 309 197 309 159 c 0xea
 309 117 302 76 300 32 c 0
 299 14 285 0 267 0 c 0
 249 0 234 16 234 34 c 0xe4
 234 60 242 124 242 159 c 0
 242 190 236 213 222 231 c 0
 221 231 218 233 212 233 c 0
 212 233 185 231 166 218 c 1
 152 197 136 159 123 124 c 1
 116 92 105 58 90 21 c 0
 85 8 72 0 59 0 c 0xf2
EndSplineSet
Validated: 1
EndChar

StartChar: uni0069
Encoding: 72 105 34
Width: 137
Flags: W
HStem: 0 21G<50 68> 280 20G<63 81> 400 67<49.2926 108.707>
VStem: 25 81<42.7067 257.293> 46 66<403.124 464.05>
LayerCount: 2
Fore
SplineSet
72 300 m 4xf0
 90 300 106 284 106 266 c 4
 106 265 105 264 92 32 c 4
 91 14 77 0 59 0 c 4
 41 0 25 16 25 34 c 4
 25 35 26 36 39 268 c 4
 40 286 54 300 72 300 c 4xf0
46 434 m 4xe8
 46 452 61 467 79 467 c 4
 97 467 112 452 112 434 c 4
 112 416 97 400 79 400 c 4
 61 400 46 416 46 434 c 4xe8
EndSplineSet
Validated: 1
EndChar

StartChar: uni006A
Encoding: 73 106 35
Width: 281
Flags: W
HStem: -233 67<74.3289 145.633> -206 63<28.1243 92.9856> 280 20G<205.5 223> 400 67<191.485 252.515>
VStem: 181 67<58.0024 296.497> 188 68<403.485 463.707>
LayerCount: 2
Fore
SplineSet
214 300 m 0xb8
 232 300 248 284 248 266 c 0
 248 264 247 264 247 262 c 0
 223 82 260 -59 197 -199 c 0
 184 -227 156 -233 138 -233 c 0xb8
 103 -233 63 -215 44 -206 c 0
 33 -201 25 -189 25 -176 c 0
 25 -158 41 -143 59 -143 c 0x78
 73 -143 80 -152 111 -161 c 0
 122 -164 132 -166 138 -166 c 0
 139 -166 l 0
 190 -45 157 92 181 271 c 0
 183 287 197 300 214 300 c 0xb8
188 434 m 0x34
 188 452 204 467 222 467 c 0
 240 467 256 452 256 434 c 0
 256 416 240 400 222 400 c 0
 204 400 188 416 188 434 c 0x34
EndSplineSet
Validated: 1
EndChar

StartChar: uni006B
Encoding: 74 107 36
Width: 286
Flags: W
HStem: 0 21G<56 74 223.5 237> 280 20G<218 231> 447 20G<61.5 79>
VStem: 25 67<228 432.852> 32 67<3.48541 93.1885>
LayerCount: 2
Fore
SplineSet
96 94 m 1xf0
 98 59 99 36 99 34 c 0
 99 16 83 0 65 0 c 0
 47 0 33 14 32 32 c 0xe8
 31 48 31 65 30 81 c 0
 28 133 25 185 25 239 c 0
 25 303 27 362 37 438 c 0
 39 455 53 467 70 467 c 0
 88 467 104 451 104 433 c 0
 104 431 92 355 92 239 c 0
 92 236 92 231 92 228 c 1
 103 235 115 243 127 250 c 0
 154 266 180 280 200 292 c 0
 207 296 214 300 222 300 c 0
 240 300 255 285 255 267 c 0
 255 257 251 247 244 241 c 0
 205 208 145 185 115 163 c 1
 122 158 130 152 140 145 c 0
 173 123 222 88 252 57 c 0
 258 51 261 42 261 33 c 0
 261 15 246 0 228 0 c 0
 219 0 210 4 204 10 c 0
 182 33 141 63 96 94 c 1xf0
EndSplineSet
Validated: 1
EndChar

StartChar: uni006C
Encoding: 75 108 37
Width: 129
Flags: W
HStem: 0 21G<50 68> 447 20G<61 79>
VStem: 25 67<3.48541 248.454> 37 67<34.1241 463.515>
LayerCount: 2
Fore
SplineSet
70 467 m 0xd0
 88 467 104 451 104 433 c 0xd0
 104 431 99 390 98 234 c 0
 98 172 98 113 92 31 c 0
 91 14 77 0 59 0 c 0
 41 0 25 16 25 34 c 0xe0
 25 36 31 79 32 234 c 0
 32 296 31 353 37 436 c 0
 38 453 52 467 70 467 c 0xd0
EndSplineSet
Validated: 33
EndChar

StartChar: uni006D
Encoding: 76 109 38
Width: 491
Flags: W
HStem: 0 21G<49.5 67 419 437> 220 67<144.202 213.013 331.264 392.745> 280 20G<86 102>
VStem: 210 67<53.5883 139.337> 399 67<6.01172 217.993>
LayerCount: 2
Fore
SplineSet
126 269 m 1xb8
 144 278 171 287 199 287 c 0
 229 287 242 276 248 270 c 0
 259 259 266 247 272 235 c 1
 290 258 321 288 366 288 c 0
 386 288 439 282 458 218 c 0
 465 196 466 173 466 149 c 0
 466 110 461 81 461 43 c 0
 461 40 461 37 461 34 c 2
 462 34 l 0
 462 16 446 0 428 0 c 0
 410 0 395 15 395 33 c 0
 395 36 394 40 394 43 c 0
 394 84 399 113 399 149 c 0
 399 177 396 206 384 216 c 0
 383 217 377 221 366 221 c 0
 322 221 286 122 277 77 c 0
 274 63 261 50 244 50 c 0
 230 50 210 61 210 84 c 0
 210 97 221 125 221 160 c 0
 221 183 215 204 203 219 c 0
 202 219 201 220 199 220 c 0xd8
 183 220 156 213 142 199 c 0
 130 187 103 159 99 97 c 0
 98 74 97 56 92 28 c 0
 89 12 75 0 59 0 c 0
 40 0 25 15 25 33 c 0
 25 34 30 61 33 105 c 0
 33 111 34 118 34 124 c 0
 37 172 40 220 62 279 c 0
 67 292 79 300 93 300 c 0
 111 300 125 287 126 269 c 1xb8
EndSplineSet
Validated: 1
EndChar

StartChar: uni006E
Encoding: 77 110 39
Width: 312
Flags: W
HStem: 0 21G<57 73 240 259> 212 67<140.092 210.648> 280 20G<94 110>
VStem: 25 68<3.1619 155.493> 220 67<5.14383 211.319>
LayerCount: 2
Fore
SplineSet
59 0 m 0
 55 0 25 1 25 38 c 0
 25 41 27 171 70 279 c 0
 75 291 87 300 101 300 c 0
 119 300 135 284 135 266 c 0
 135 265 134 265 134 264 c 1
 154 272 177 279 200 279 c 0
 279 279 287 192 287 122 c 0
 287 90 285 69 283 32 c 0
 282 14 268 0 250 0 c 0
 230 0 216 16 217 35 c 1
 219 72 220 92 220 122 c 0
 220 150 218 198 205 212 c 4
 204 212 202 212 200 212 c 0
 177 212 139 194 129 185 c 1
 117 168 98 143 93 38 c 0
 92 24 87 0 59 0 c 0
EndSplineSet
Validated: 33
EndChar

StartChar: uni006F
Encoding: 78 111 40
Width: 285
Flags: W
HStem: 0 67<93.7898 157.434> 280 20G<138 203.5>
VStem: 25 67<68.3218 165.934> 193 67<115.66 231.115>
LayerCount: 2
Fore
SplineSet
196 300 m 4
 211 300 260 292 260 209 c 4
 260 175 252 137 241 104 c 4
 223 53 203 29 164 12 c 4
 146 4 127 0 108 0 c 4
 82 0 46 10 32 45 c 4
 26 59 25 74 25 90 c 4
 25 175 84 293 192 300 c 4
 193 300 195 300 196 300 c 4
191 232 m 5
 126 224 92 139 92 90 c 4
 92 80 94 73 95 69 c 4
 96 68 99 67 108 67 c 4
 124 67 145 75 157 86 c 4
 171 99 193 162 193 209 c 4
 193 219 192 228 191 232 c 5
EndSplineSet
Validated: 1
EndChar

StartChar: uni0070
Encoding: 79 112 41
Width: 309
Flags: W
HStem: 233 67<111.458 211.711>
VStem: 34 67<-198.864 14 84.3596 223.828> 217 67<106.202 221.573>
LayerCount: 2
Fore
SplineSet
153 67 m 0
 178 67 216 124 217 165 c 0
 217 169 217 172 217 176 c 0
 217 197 215 213 211 222 c 0
 209 227 204 233 177 233 c 0
 162 233 140 233 111 225 c 1
 107 200 106 175 104 151 c 0
 105 125 109 90 130 75 c 0
 140 68 152 67 153 67 c 0
34 -20 m 0
 34 -1 34 19 34 38 c 0
 34 75 34 113 37 153 c 0
 37 155 37 156 37 158 c 0
 37 206 47 258 52 267 c 0
 54 271 59 279 71 283 c 0
 114 297 148 300 177 300 c 0
 209 300 252 294 272 249 c 0
 283 224 284 199 284 176 c 0
 284 158 284 136 270 101 c 0
 259 75 243 50 223 31 c 0
 215 23 183 -6 139 1 c 0
 125 3 112 8 101 14 c 1
 101 -9 101 -11 101 -20 c 0
 101 -75 99 -140 92 -203 c 0
 90 -220 76 -233 59 -233 c 0
 41 -233 25 -217 25 -199 c 0
 25 -197 34 -138 34 -20 c 0
EndSplineSet
Validated: 33
EndChar

StartChar: uni0071
Encoding: 80 113 42
Width: 276
Flags: W
HStem: 0 67<94.0517 135.491> 280 20G<155.5 184.5>
VStem: 25 67<69.8767 162.224> 164 68<-229.707 -156.031 -156 13.4697>
LayerCount: 2
Fore
SplineSet
115 0 m 0
 78 0 25 16 25 86 c 0
 25 121 40 158 52 196 c 0
 68 249 127 300 184 300 c 0
 185 300 230 294 244 277 c 0
 246 275 251 267 251 256 c 0
 251 249 251 250 250 245 c 0
 233 86 231 -17 231 -156 c 0
 231 -156 232 -199 232 -200 c 0
 232 -218 216 -233 198 -233 c 0
 180 -233 164 -218 164 -200 c 0
 164 -199 164 -156 164 -156 c 0
 164 -94 165 -41 167 18 c 1
 154 7 135 0 115 0 c 0
92 86 m 0
 92 76 94 73 95 72 c 0
 98 68 112 67 115 67 c 0
 127 67 162 110 181 233 c 1
 153 230 123 199 116 176 c 0
 104 138 92 105 92 86 c 0
EndSplineSet
Validated: 1
EndChar

StartChar: uni0072
Encoding: 81 114 43
Width: 271
Flags: W
HStem: 0 21G<52.5 70.5> 280 20G<61 79 209.5 221>
VStem: 25 69<4.32452 140.229> 37 65<230.345 265.989 266 297.219>
LayerCount: 2
Fore
SplineSet
94 65 m 4xe0
 94 38 95 35 95 34 c 4
 95 16 80 0 61 0 c 4
 44 0 30 12 28 29 c 4
 25 56 25 62 25 85 c 4xe0
 25 146 35 198 37 268 c 4
 38 286 52 300 70 300 c 4
 88 300 103 284 103 266 c 4
 103 266 103 251 102 228 c 5xd0
 131 255 162 281 199 297 c 4
 203 299 207 300 212 300 c 4
 230 300 246 284 246 266 c 4
 246 252 237 241 225 236 c 4
 195 223 164 194 130 162 c 4
 122 155 115 148 107 141 c 5
 96 125 94 80 94 65 c 4xe0
EndSplineSet
Validated: 1
EndChar

StartChar: uni0073
Encoding: 82 115 44
Width: 291
Flags: W
HStem: 0 64<54.7259 159.428> 233 67<144.083 243.021>
VStem: 77 67<189.599 231.435> 174 67<79.3923 122.279>
LayerCount: 2
Fore
SplineSet
104 64 m 0
 161 64 174 102 174 103 c 0
 174 125 77 148 77 212 c 0
 77 220 78 227 80 235 c 0
 94 286 145 300 180 300 c 0
 204 300 227 295 246 286 c 0
 257 281 266 270 266 256 c 0
 266 238 250 222 232 222 c 0
 219 222 208 233 180 233 c 0
 161 233 144 229 144 212 c 0
 144 184 241 165 241 103 c 0
 241 67 210 0 115 0 c 0
 93 0 70 4 49 10 c 0
 35 14 25 27 25 42 c 0
 25 60 41 75 59 75 c 0
 69 75 75 64 104 64 c 0
EndSplineSet
Validated: 1
EndChar

StartChar: uni0076
Encoding: 85 118 45
Width: 315
Flags: W
HStem: 0 21G<134.5 160.5> 280 20G<50 66 249.5 265>
VStem: 25 65<227.639 296.515> 226 64<237.395 296.374>
LayerCount: 2
Fore
SplineSet
25 266 m 0
 25 284 41 300 59 300 c 0
 73 300 85 291 90 279 c 0
 114 220 135 152 154 100 c 1
 161 117 168 134 176 156 c 0
 192 200 207 241 226 281 c 0
 231 292 243 300 256 300 c 0
 274 300 290 284 290 266 c 0
 290 261 288 256 286 252 c 0
 246 170 217 54 188 18 c 0
 180 8 168 0 153 0 c 0
 116 0 101 40 65 148 c 0
 52 188 41 221 28 254 c 0
 26 258 25 262 25 266 c 0
EndSplineSet
Validated: 1
EndChar

StartChar: uni0074
Encoding: 83 116 46
Width: 312
Flags: W
HStem: 0 21G<157 185.5> 233 67<59.093 115 187 282.443> 447 20G<146 164>
VStem: 107 67<71 226.291> 123 67<300 463.136> 202 66<79.1939 145.707>
LayerCount: 2
Fore
SplineSet
123 387 m 0xec
 123 418 121 430 121 433 c 0
 121 451 137 467 155 467 c 0
 173 467 187 453 188 436 c 0
 189 419 190 405 190 387 c 0xec
 190 361 189 327 187 300 c 1
 209 300 231 298 255 297 c 0
 273 296 287 282 287 264 c 0
 287 246 272 230 254 230 c 0
 253 230 253 230 252 230 c 2
 226 231 203 233 182 233 c 1
 175 151 174 133 174 103 c 0
 174 90 175 79 176 71 c 1
 186 80 193 99 202 126 c 2
 207 139 219 149 234 149 c 0
 252 149 268 134 268 116 c 0
 268 103 252 67 248 59 c 0
 233 30 207 0 164 0 c 0
 150 0 119 6 110 57 c 0
 108 71 107 86 107 103 c 0xf4
 107 126 107 129 115 231 c 1
 99 230 82 227 64 224 c 2
 62 224 61 223 59 223 c 0
 41 223 25 239 25 257 c 0
 25 274 37 287 53 290 c 0
 77 294 99 296 120 298 c 1
 122 326 123 361 123 387 c 0xec
EndSplineSet
Validated: 1
EndChar

StartChar: uni0075
Encoding: 84 117 47
Width: 327
Flags: W
HStem: 0 67<95.0419 141.253> 280 20G<53.04 70.04 256.54 274.04>
VStem: 25.04 67<67.9747 295.04> 232.04 68<3.48541 83 165.618 296.348>
LayerCount: 2
Fore
SplineSet
29.0400390625 234 m 0
 29.0400390625 261 30.0400390625 260 30.0400390625 268 c 0
 30.0400390625 286 44.0400390625 300 62.0400390625 300 c 0
 78.0400390625 300 89.0400390625 288 92.0400390625 273 c 0
 95.0400390625 258 96.0400390625 250 96.0400390625 234 c 0
 96.0400390625 202 92.0400390625 165 92.0400390625 133 c 0
 92.0400390625 118 91.0400390625 81 101.040039062 71 c 0
 103.040039062 69 105.040039062 67 112.040039062 67 c 1
 142.040039062 79 192.040039062 135 224.040039062 181 c 0
 226.040039062 184 233.040039062 192 233.040039062 208 c 0
 233.040039062 244 232.040039062 266 232.040039062 267 c 0
 232.040039062 285 247.040039062 300 266.040039062 300 c 0
 282.040039062 300 296.040039062 288 299.040039062 272 c 0
 299.040039062 271 302.040039062 261 302.040039062 236 c 0
 302.040039062 235 301.040039062 214 300.040039062 203 c 0
 300.040039062 196 300.040039062 189 300.040039062 182 c 0
 300.040039062 180 300.040039062 48 300.040039062 34 c 0
 300.040039062 16 284.040039062 0 266.040039062 0 c 0
 248.040039062 0 232.040039062 16 232.040039062 34 c 0
 232.040039062 54 233.040039062 67 233.040039062 83 c 1
 212.040039062 60 180.040039062 27 151.040039062 11 c 0
 140.040039062 5 127.040039062 0 112.040039062 0 c 0
 98.0400390625 0 51.0400390625 4 32.0400390625 58 c 0
 24.0400390625 81 25.0400390625 109 25.0400390625 133 c 0
 25.0400390625 151 26.0400390625 170 27.0400390625 187 c 0
 28.0400390625 204 29.0400390625 220 29.0400390625 234 c 0
EndSplineSet
Validated: 33
EndChar

StartChar: uni0077
Encoding: 86 119 48
Width: 516
Flags: W
HStem: 0 21G<133.5 141 344 377> 280 20G<50 67 449 466>
VStem: 25 66<175.009 296.426>
LayerCount: 2
Fore
SplineSet
25 266 m 0
 25 284 41 300 59 300 c 0
 75 300 87 289 91 275 c 0
 109 206 115 113 134 76 c 1
 159 109 183 159 215 192 c 0
 228 205 253 229 286 229 c 0
 306 229 338 220 348 165 c 0
 354 134 354 87 360 68 c 1
 362 69 374 75 388 114 c 0
 398 143 406 189 414 228 c 0
 417 242 421 260 424 274 c 0
 427 289 441 300 457 300 c 0
 475 300 491 284 491 266 c 0
 491 263 491 261 490 259 c 2
 487 246 483 228 480 214 c 0
 470 165 460 107 440 66 c 0
 425 35 399 0 355 0 c 0
 333 0 302 10 292 64 c 0
 286 95 287 140 281 160 c 1
 241 140 200 33 162 8 c 0
 156 4 147 0 135 0 c 0
 132 0 130 0 127 1 c 0
 70 12 57 92 43 175 c 0
 38 204 34 233 27 258 c 0
 26 261 25 263 25 266 c 0
EndSplineSet
Validated: 1
EndChar

StartChar: uni0078
Encoding: 87 120 49
Width: 300
Flags: W
HStem: 0 21G<49 63 228 242> 280 20G<54 69 237.5 251>
VStem: 25 250
LayerCount: 2
Fore
SplineSet
29 266 m 0
 29 284 45 300 63 300 c 0
 75 300 86 294 92 284 c 0
 112 252 126 228 142 204 c 1
 165 234 184 259 219 291 c 0
 225 296 233 300 242 300 c 0
 260 300 275 285 275 267 c 0
 275 257 272 248 265 242 c 0
 227 208 207 179 182 146 c 1
 204 117 226 91 258 56 c 0
 263 50 266 42 266 33 c 0
 266 15 251 0 233 0 c 0
 223 0 214 4 208 11 c 0
 181 41 162 64 142 89 c 1
 123 62 109 42 84 12 c 0
 78 5 68 0 58 0 c 0
 40 0 25 15 25 33 c 0
 25 41 27 49 32 55 c 0
 49 75 51 77 100 146 c 1
 79 177 59 207 34 249 c 0
 31 254 29 260 29 266 c 0
EndSplineSet
Validated: 1
EndChar

StartChar: uni0079
Encoding: 88 121 50
Width: 350
Flags: W
HStem: -233 67<97.2149 177.087> 0 67<148.978 211.652> 280 20G<102 119 280 300.5>
VStem: 66 67<83.6698 260.532> 74 67<134.594 296.336> 260 65<203.182 296.856>
LayerCount: 2
Fore
SplineSet
74 231 m 0xec
 74 253 74 261 74 270 c 0
 74 288 93 300 111 300 c 0
 127 300 134 290 138 275 c 0
 142 260 141 245 141 231 c 0xec
 141 195 133 161 133 133 c 0
 133 100 144 84 175 70 c 0
 180 68 183 67 186 67 c 0
 198 67 216 84 227 120 c 1
 243 241 260 273 260 277 c 0
 260 278 268 300 292 300 c 0
 309 300 325 286 325 266 c 0
 325 262 326 262 324 256 c 0
 322 248 305 194 303 167 c 0
 301 146 297 125 292 106 c 0
 289 82 287 59 284 35 c 0
 269 -94 258 -175 215 -206 c 0
 192 -223 169 -233 143 -233 c 0
 109 -233 81 -216 41 -190 c 0
 32 -184 25 -174 25 -162 c 0
 25 -144 41 -128 59 -128 c 0
 61 -128 68 -129 77 -134 c 0
 111 -156 129 -166 143 -166 c 0
 149 -166 158 -164 176 -151 c 0
 179 -149 187 -137 195 -103 c 0
 202 -73 207 -39 212 4 c 1
 204 1 195 0 186 0 c 0
 172 0 159 3 146 9 c 0
 70 44 66 104 66 133 c 0xf4
 66 167 74 201 74 231 c 0xec
EndSplineSet
Validated: 33
EndChar

StartChar: uni007A
Encoding: 89 122 51
Width: 348
Flags: W
HStem: 4 67<128.531 319.119> 207 93<88.5192 175.947>
VStem: 25 298
LayerCount: 2
Fore
SplineSet
256 4 m 0
 217 4 167 0 130 0 c 0
 99 0 46 0 46 49 c 0
 46 85 80 112 126 154 c 0
 155 181 186 206 203 230 c 1
 182 227 163 227 65 208 c 0
 63 208 61 207 59 207 c 0
 41 207 25 223 25 241 c 0
 25 257 38 271 53 274 c 0
 170 297 204 300 237 300 c 0
 248 300 267 299 279 284 c 0
 284 278 286 270 286 262 c 0
 286 253 283 225 248 182 c 0
 211 136 158 100 128 67 c 1
 129 67 129 67 130 67 c 0
 147 67 168 68 189 69 c 0
 212 70 234 71 256 71 c 0
 269 71 282 70 293 69 c 0
 310 67 323 53 323 36 c 0
 323 18 307 2 289 2 c 0
 288 2 287 3 286 3 c 2
 278 4 268 4 256 4 c 0
EndSplineSet
Validated: 1
EndChar

StartChar: uni0030
Encoding: 15 48 52
Width: 338
Flags: W
HStem: 0 67<121.046 187.671> 400 67<129.659 220.583>
VStem: 25 67<96.9093 347.599> 246 67<167.778 372.639>
LayerCount: 2
Fore
SplineSet
157 67 m 0
 206 67 246 204 246 292 c 0
 246 320 243 366 214 388 c 0
 205 395 192 400 175 400 c 0
 163 400 122 407 102 314 c 0
 94 279 92 240 92 205 c 0
 92 177 93 153 95 136 c 0
 99 102 131 67 157 67 c 0
313 292 m 0
 313 232 299 168 279 114 c 0
 251 38 210 0 157 0 c 0
 93 0 37 60 29 128 c 0
 27 147 25 175 25 205 c 0
 25 294 40 404 111 449 c 0
 129 461 151 467 175 467 c 0
 210 467 313 460 313 292 c 0
EndSplineSet
Validated: 33
EndChar

StartChar: uni0031
Encoding: 16 49 53
Width: 124
Flags: W
HStem: 0 21G<49 67> 447 20G<57 75>
VStem: 25 66<3.2926 229.051> 33 66<36.0966 464.05>
LayerCount: 2
Fore
SplineSet
66 467 m 0xd0
 84 467 99 452 99 434 c 0xd0
 99 391 95 234 95 232 c 0
 93 169 92 112 91 33 c 0
 91 15 76 0 58 0 c 0
 40 0 25 16 25 34 c 0xe0
 25 77 28 232 28 234 c 0
 30 297 32 355 33 434 c 0
 33 452 48 467 66 467 c 0xd0
EndSplineSet
Validated: 1
EndChar

StartChar: uni0032
Encoding: 17 50 54
Width: 351
Flags: W
HStem: 0 67<129.259 303.793> 447 20G<178.5 231.5>
LayerCount: 2
Fore
SplineSet
153 67 m 0
 194 67 292 78 293 78 c 0
 311 78 326 63 326 45 c 0
 326 28 313 13 296 11 c 0
 288 10 280 10 271 9 c 0
 234 5 191 0 153 0 c 0
 112 0 80 5 64 27 c 0
 58 35 55 45 55 55 c 0
 55 64 57 72 60 78 c 0
 147 238 172 262 189 319 c 0
 194 337 199 362 202 400 c 1
 173 396 128 376 78 341 c 0
 72 337 66 334 59 334 c 0
 41 334 25 350 25 368 c 0
 25 379 31 389 40 395 c 0
 71 417 148 467 209 467 c 0
 254 467 271 438 271 414 c 0
 271 413 268 346 254 300 c 0
 234 231 211 214 129 68 c 1
 136 67 144 67 153 67 c 0
EndSplineSet
Validated: 1
EndChar

StartChar: uni0033
Encoding: 18 51 55
Width: 309
Flags: W
HStem: 0 21G<58 68.5> 400 67<30.6953 214.192>
VStem: 192 67<100.474 159.049>
LayerCount: 2
Fore
SplineSet
139 400 m 0
 103 400 59 396 58 396 c 0
 40 396 25 411 25 429 c 0
 25 446 38 461 55 463 c 0
 85 466 113 467 139 467 c 0
 208 467 262 456 279 416 c 0
 282 409 284 401 284 393 c 0
 284 339 208 302 180 265 c 0
 176 260 174 256 173 253 c 0
 190 235 218 215 238 187 c 0
 249 172 259 152 259 129 c 0
 259 102 235 67 197 42 c 0
 167 23 133 15 96 6 c 0
 89 4 82 3 75 1 c 2
 72 0 70 0 67 0 c 0
 49 0 33 16 33 34 c 0
 33 50 44 62 59 66 c 0
 67 68 74 69 81 71 c 0
 156 89 178 90 191 127 c 0
 191 128 192 128 192 129 c 0
 192 149 140 188 121 211 c 0
 108 227 105 238 105 249 c 0
 105 315 193 358 215 390 c 1
 207 394 186 400 139 400 c 0
EndSplineSet
Validated: 1
EndChar

StartChar: uni0034
Encoding: 19 52 56
Width: 359
Flags: W
HStem: 0 21G<159 177> 167 67<94.9668 144> 281 20G<292.5 310> 447 20G<59 77 189 207>
VStem: 25 67<235.31 444.657>
LayerCount: 2
Fore
SplineSet
111 167 m 0
 38 167 25 221 25 287 c 0
 25 337 32 381 35 435 c 0
 36 453 50 467 68 467 c 0
 86 467 102 451 102 433 c 0
 102 415 92 333 92 287 c 0
 92 271 93 246 99 235 c 0
 100 235 105 234 111 234 c 0
 121 234 134 236 150 240 c 1
 155 301 160 360 165 436 c 0
 166 454 180 467 198 467 c 0
 216 467 232 451 232 433 c 0
 232 431 228 375 219 264 c 1
 279 290 284 301 301 301 c 0
 319 301 334 286 334 268 c 0
 334 256 328 245 318 239 c 0
 288 221 251 204 213 190 c 1
 209 140 205 92 201 31 c 0
 200 14 186 0 168 0 c 0
 150 0 134 16 134 34 c 0
 134 35 137 83 144 170 c 1
 133 168 112 167 111 167 c 0
EndSplineSet
Validated: 1
EndChar

StartChar: uni0035
Encoding: 20 53 57
Width: 336
Flags: W
HStem: -9 67<96.6336 214.407> 404 66<109.568 305.187>
VStem: 37 67<288.775 400.779> 234 67<77.2315 165.252>
LayerCount: 2
Fore
SplineSet
164 -9 m 0
 100 -9 25 26 25 67 c 0
 25 85 41 101 59 101 c 0
 72 101 84 93 89 82 c 1
 108 67 140 58 164 58 c 0
 221 58 233 99 234 137 c 0
 234 139 l 0
 234 157 219 166 169 187 c 0
 137 200 97 215 68 249 c 0
 45 276 37 314 37 353 c 0
 37 354 38 410 52 439 c 0
 65 466 101 470 154 470 c 0
 180 470 179 470 279 465 c 0
 297 464 311 450 311 432 c 0
 311 414 296 398 278 398 c 0
 277 398 193 404 154 404 c 0
 141 404 121 403 109 401 c 1
 107 390 104 371 104 353 c 0
 104 341 106 308 119 293 c 0
 154 252 243 246 282 196 c 0
 294 181 301 161 301 139 c 0
 301 70 265 -9 164 -9 c 0
EndSplineSet
Validated: 1
EndChar

StartChar: uni0036
Encoding: 21 54 58
Width: 277
Flags: W
HStem: 0 67<99.846 176.839> 447 20G<185.5 201>
VStem: 162 64<408.887 463.374> 185 67<76.6061 164.093>
LayerCount: 2
Fore
SplineSet
92 105 m 1xd0
 98 82 112 67 134 67 c 0
 155 67 178 81 183 97 c 0
 184 101 185 107 185 112 c 0
 185 144 157 189 123 197 c 1
 103 147 95 122 92 105 c 1xd0
149 259 m 1
 204 241 252 178 252 112 c 0xd0
 252 37 186 0 134 0 c 0
 116 0 48 5 27 91 c 0
 26 96 25 100 25 104 c 0
 25 128 40 170 65 232 c 0
 93 301 125 371 162 448 c 0
 167 459 179 467 192 467 c 0
 210 467 226 451 226 433 c 0xe0
 226 428 224 423 222 419 c 0
 194 362 173 315 149 259 c 1
EndSplineSet
Validated: 1
EndChar

StartChar: uni0037
Encoding: 22 55 59
Width: 301
Flags: W
HStem: 0 21G<183 200.5> 400 67<59.2464 208>
VStem: 209 67<216.107 399.486>
LayerCount: 2
Fore
SplineSet
208 400 m 1
 148 397 63 381 59 381 c 0
 41 381 25 397 25 415 c 0
 25 432 37 445 53 448 c 0
 113 459 183 467 221 467 c 0
 245 467 251 463 256 460 c 0
 261 457 273 449 274 432 c 0
 275 416 276 402 276 387 c 0
 276 259 239 162 225 30 c 0
 223 13 209 0 192 0 c 0
 174 0 158 16 158 34 c 0
 158 36 159 63 184 188 c 0
 197 255 209 319 209 387 c 0
 209 391 208 396 208 400 c 1
EndSplineSet
Validated: 1
EndChar

StartChar: uni0038
Encoding: 23 56 60
Width: 281
Flags: W
HStem: 0 67<114.532 187.559> 400 67<102.689 163.943>
VStem: 29 67<85.5079 166.597 289.209 387.683> 189 67<70.7433 133.033>
LayerCount: 2
Fore
SplineSet
29 123 m 0
 29 153 43 178 75 229 c 1
 48 259 25 296 25 346 c 0
 25 360 27 376 31 391 c 0
 44 440 113 467 163 467 c 0
 183 467 211 462 225 438 c 0
 227 435 232 427 232 411 c 0
 232 353 199 296 161 238 c 0
 162 237 162 237 163 236 c 0
 203 199 256 158 256 81 c 0
 256 25 211 0 165 0 c 0
 111 0 42 34 30 108 c 0
 29 113 29 118 29 123 c 0
124 181 m 1
 106 151 96 136 96 123 c 0
 96 122 96 120 96 119 c 0
 101 87 135 67 165 67 c 0
 166 67 181 67 187 73 c 0
 188 74 189 75 189 81 c 0
 189 121 163 144 124 181 c 1
163 400 m 0
 137 400 101 384 96 374 c 1
 93 363 92 354 92 346 c 0
 92 325 99 306 113 288 c 1
 136 325 160 365 164 400 c 1
 163 400 l 0
EndSplineSet
Validated: 1
EndChar

StartChar: uni0039
Encoding: 24 57 61
Width: 316
Flags: W
HStem: 0 21G<223 240.5> 242 59<95.4279 171.894> 400 67<107.056 184.709>
VStem: 25 67<304.119 385.385> 224 67<74.4982 280.055>
LayerCount: 2
Fore
SplineSet
150 400 m 0
 142 400 131 398 118 390 c 0
 102 381 92 357 92 338 c 0
 92 322 98 316 103 310 c 0
 110 302 119 301 125 301 c 0
 149 301 175 316 201 352 c 1
 188 385 168 400 150 400 c 0
219 281 m 1
 191 260 161 242 124 242 c 0
 110 242 95 244 80 250 c 0
 40 266 25 305 25 338 c 0
 25 383 49 428 86 449 c 0
 107 461 129 467 150 467 c 0
 212 467 249 416 266 367 c 0
 276 336 l 1
 287 297 291 262 291 227 c 0
 291 179 283 134 274 79 c 0
 271 63 268 46 265 28 c 0
 262 12 249 0 232 0 c 0
 214 0 198 16 198 34 c 0
 198 51 224 158 224 227 c 0
 224 245 222 262 219 281 c 1
EndSplineSet
Validated: 1
EndChar

StartChar: uni0021
Encoding: 0 33 62
Width: 120
Flags: W
HStem: 0 67<30.4854 91.5146> 447 20G<50 68>
VStem: 27 68<3.48541 63.7074 149.549 462.579>
LayerCount: 2
Fore
SplineSet
25 434 m 2
 25 452 41 467 59 467 c 0
 77 467 93 452 93 434 c 2
 91 178 l 2
 91 160 76 144 58 144 c 0
 40 144 25 160 25 178 c 2
 25 434 l 2
27 34 m 0
 27 52 43 67 61 67 c 0
 79 67 95 52 95 34 c 0
 95 16 79 0 61 0 c 0
 43 0 27 16 27 34 c 0
EndSplineSet
Validated: 1
EndChar

StartChar: uni0022
Encoding: 1 34 63
Width: 276
Flags: W
HStem: 300 167<81.5366 89.7397>
VStem: 82.0039 64<410.754 463.488> 138.004 65<303.485 362.906> 186.004 65<404.094 463.515>
LayerCount: 2
Fore
SplineSet
112.00390625 467 m 0xc0
 130.00390625 467 146.00390625 451 146.00390625 433 c 0
 146.00390625 424 145.00390625 425 114.00390625 366 c 0
 100.00390625 340 97.00390625 333 89.00390625 318 c 0
 83.00390625 307 72.00390625 300 59.00390625 300 c 0
 41.00390625 300 25.00390625 316 25.00390625 334 c 0
 25.00390625 343 24.00390625 338 55.00390625 397 c 0
 64.00390625 413 72.00390625 429 82.00390625 449 c 0
 88.00390625 460 99.00390625 467 112.00390625 467 c 0xc0
217.00390625 467 m 0
 235.00390625 467 251.00390625 451 251.00390625 433 c 0x90
 251.00390625 428 250.00390625 424 248.00390625 420 c 0
 248.00390625 419 203.00390625 321 203.00390625 320 c 0
 198.00390625 308 186.00390625 300 172.00390625 300 c 0
 154.00390625 300 138.00390625 316 138.00390625 334 c 0xa0
 138.00390625 339 139.00390625 343 141.00390625 347 c 0
 141.00390625 348 186.00390625 446 186.00390625 447 c 0x90
 191.00390625 459 203.00390625 467 217.00390625 467 c 0
EndSplineSet
Validated: 33
EndChar

StartChar: numbersign
Encoding: 2 35 64
Width: 442
Flags: W
HStem: 0 21G<144 162> 115 67<28.4854 119.139> 266 67<35.4854 127> 279 72<307.079 409.187> 447 20G<157 175 267 285>
VStem: 120 66<3.12434 121 194 256.212> 228 67<18.2926 129.805 198 279> 243 67<226.5 276 346 463.56>
LayerCount: 2
Fore
SplineSet
127 270 m 1xde
 126 270 67 266 66 266 c 0
 48 266 32 282 32 300 c 0
 32 318 46 332 64 333 c 0
 87 334 109 336 129 337 c 1
 133 435 l 2
 134 453 148 467 166 467 c 0
 184 467 200 452 200 434 c 0
 200 433 199 441 196 341 c 1
 205 341 239 343 239 343 c 2
 243 435 l 2
 244 453 258 467 276 467 c 0
 294 467 310 452 310 434 c 0xed
 310 433 309 424 306 346 c 1
 329 347 353 348 379 350 c 1
 380 350 380 351 381 351 c 0
 399 351 415 335 415 317 c 0
 415 299 401 285 383 284 c 0
 354 282 328 280 304 279 c 1
 301 204 l 1
 382 211 382 211 383 211 c 0
 401 211 417 195 417 177 c 0
 417 159 403 145 386 144 c 2
 299 136 l 1
 295 47 l 2
 294 29 280 15 262 15 c 0
 244 15 228 30 228 48 c 0
 228 49 231 127 231 130 c 1
 190 127 l 1
 186 32 l 2
 185 14 171 0 153 0 c 0
 135 0 120 16 120 34 c 0
 120 35 122 118 122 121 c 1
 60 116 60 115 59 115 c 0
 41 115 25 131 25 149 c 0
 25 167 39 181 56 182 c 2
 125 188 l 1
 127 270 l 1xde
192 194 m 1
 234 198 l 1
 237 276 l 1
 201 274 200 273 194 273 c 1
 192 194 l 1
EndSplineSet
Validated: 1
EndChar

StartChar: dollar
Encoding: 3 36 65
Width: 293
Flags: W
HStem: 0 21G<120 138> 94 67<28.4854 59 59.0022 100> 447 20G<146 164>
VStem: 95 67<3.56445 92> 119 70<399 462.717> 185 67<162.565 208.332>
LayerCount: 2
Fore
SplineSet
110 250 m 1xf4
 83 264 41 284 41 325 c 0
 41 341 48 386 119 399 c 1
 122 436 l 2
 123 454 137 467 155 467 c 0
 173 467 189 451 189 433 c 0xe8
 189 432 188 438 186 401 c 1
 208 399 228 396 245 390 c 0
 258 386 268 373 268 358 c 0
 268 340 252 324 234 324 c 0
 223 324 216 331 182 334 c 1
 179 289 l 1
 200 277 252 245 252 184 c 0
 252 157 242 102 167 93 c 1
 162 31 l 2
 161 13 147 0 129 0 c 0
 111 0 95 16 95 34 c 0
 95 35 96 26 100 92 c 1
 75 93 70 94 64 94 c 0
 62 94 59 93 59 93 c 0
 41 93 25 109 25 127 c 0
 25 145 40 160 58 160 c 0
 60 160 62 161 64 161 c 0
 72 161 76 160 104 159 c 1
 110 250 l 1xf4
171 162 m 1
 177 164 185 167 185 184 c 0xe4
 185 194 181 201 174 209 c 1
 171 162 l 1
114 324 m 1
 114 329 l 1
 112 328 112 327 111 326 c 1
 112 325 113 325 114 324 c 1
EndSplineSet
Validated: 33
EndChar

StartChar: percent
Encoding: 4 37 66
Width: 485
Flags: W
HStem: 0 67<334 376.932> 144 67<349.16 392.539> 201 67<83.0974 122.254> 447 20G<104.5 157 358 373>
VStem: 149 67<295.707 399.36> 266 67<67.6718 129.548> 393 67<82.9098 143.506>
LayerCount: 2
Fore
SplineSet
148 467 m 0xbe
 166 467 216 459 216 378 c 0
 216 333 200 275 176 236 c 0
 163 215 136 201 104 201 c 0
 57 201 25 229 25 264 c 0
 25 313 61 467 148 467 c 0xbe
266 73 m 0
 266 128 303 211 379 211 c 0xde
 393 211 408 208 422 202 c 0
 453 189 460 158 460 136 c 0
 460 84 427 19 382 6 c 0
 370 2 356 0 342 0 c 0
 295 0 266 32 266 73 c 0
364 467 m 0
 382 467 398 452 398 434 c 0
 398 428 396 422 393 417 c 0
 391 413 161 21 159 17 c 0
 153 7 142 0 130 0 c 0
 112 0 96 16 96 34 c 0
 96 40 98 45 101 50 c 0
 103 54 333 446 335 450 c 0
 341 460 352 467 364 467 c 0
104 268 m 0xbe
 111 268 118 270 119 271 c 0
 135 298 147 370 149 378 c 1
 149 388 147 396 146 400 c 1
 140 398 131 387 123 372 c 0
 109 346 63 280 93 270 c 0
 96 269 100 268 104 268 c 0xbe
333 73 m 0
 333 71 333 69 334 68 c 1
 334 68 334 67 342 67 c 0
 347 67 354 69 362 71 c 1
 378 80 393 114 393 136 c 0
 393 138 393 140 393 141 c 0
 387 143 383 144 379 144 c 0xde
 348 144 333 95 333 73 c 0
EndSplineSet
Validated: 33
EndChar

StartChar: ampersand
Encoding: 5 38 67
Width: 390
Flags: W
HStem: 0 21G<303.5 321> 400 67<140.482 191.924>
VStem: 25 67<85 136.165> 192 67<345.751 399.975>
LayerCount: 2
Fore
SplineSet
154 202 m 1
 135 176 92 116 92 85 c 5
 119 89 162 109 199 128 c 1
 194 136 176 164 154 202 c 1
197 261 m 1
 205 247 230 206 258 161 c 1
 279 173 297 184 313 194 c 0
 318 197 324 200 331 200 c 0
 349 200 365 184 365 166 c 0
 365 154 359 144 349 138 c 0
 334 128 314 117 294 105 c 1
 310 82 320 72 329 62 c 0
 345 44 346 46 346 34 c 0
 346 16 330 0 312 0 c 0
 295 0 285 -2 235 72 c 1
 139 22 103 18 86 18 c 4
 38 18 25 56 25 85 c 4
 25 138 66 195 118 266 c 1
 89 318 73 349 67 367 c 0
 65 372 65 376 65 381 c 0
 65 431 147 459 151 460 c 0
 163 464 176 467 190 467 c 0
 203 467 219 465 233 453 c 0
 251 438 259 415 259 394 c 0
 259 362 244 326 197 261 c 1
192 395 m 0
 192 400 192 400 190 400 c 0
 189 400 161 397 136 377 c 1
 141 365 150 347 161 327 c 1
 171 342 192 377 192 395 c 0
EndSplineSet
Validated: 33
EndChar

StartChar: quotesingle
Encoding: 6 39 68
Width: 165
Flags: W
HStem: 300 167<75.5721 89.4279>
VStem: 25 115
LayerCount: 2
Fore
SplineSet
106 467 m 0
 124 467 140 451 140 433 c 0
 140 428 138 423 136 419 c 0
 136 418 90 320 89 319 c 0
 84 308 72 300 59 300 c 0
 41 300 25 316 25 334 c 0
 25 339 27 344 29 348 c 0
 29 349 75 447 76 448 c 0
 81 459 93 467 106 467 c 0
EndSplineSet
Validated: 1
EndChar

StartChar: parenleft
Encoding: 7 40 69
Width: 250
Flags: W
HStem: 447 20G<183.5 201>
VStem: 25 67<-22.2937 229.055>
LayerCount: 2
Fore
SplineSet
167 455 m 0
 167 455 175 467 192 467 c 0
 210 467 225 452 225 434 c 0
 225 426 222 418 217 412 c 0
 162 349 92 250 92 99 c 0
 92 -16 146 -119 194 -179 c 0
 199 -185 201 -192 201 -200 c 0
 201 -218 186 -233 168 -233 c 0
 150 -233 142 -220 142 -220 c 0
 87 -151 25 -36 25 99 c 0
 25 275 112 391 167 455 c 0
EndSplineSet
Validated: 1
EndChar

StartChar: parenright
Encoding: 8 41 70
Width: 268
Flags: W
HStem: 447 20G<93 107>
VStem: 176 67<13.0258 261.19>
LayerCount: 2
Fore
SplineSet
69 434 m 0
 69 452 84 467 102 467 c 0
 112 467 121 463 127 456 c 0
 196 381 243 258 243 134 c 0
 243 -25 168 -122 83 -221 c 0
 77 -228 68 -233 58 -233 c 0
 40 -233 25 -218 25 -200 c 0
 25 -192 28 -184 33 -178 c 0
 117 -80 176 2 176 134 c 0
 176 242 132 351 77 411 c 0
 72 417 69 425 69 434 c 0
EndSplineSet
Validated: 1
EndChar

StartChar: asterisk
Encoding: 9 42 71
Width: 268
Flags: W
HStem: 347 64<28.3641 77.5305 188.724 239.876> 447 20G<124 142>
VStem: 100 67<396 463.515>
LayerCount: 2
Fore
SplineSet
58 411 m 0
 66 411 66 410 100 394 c 1
 100 402 99 425 100 436 c 0
 101 453 115 467 133 467 c 0
 151 467 167 451 167 433 c 0
 167 433 167 400 167 396 c 1
 201 411 202 412 209 412 c 0
 227 412 243 396 243 378 c 0
 243 364 235 352 223 347 c 0
 210 341 198 337 188 332 c 1
 217 303 l 2
 223 297 227 288 227 279 c 0
 227 261 212 246 194 246 c 0
 185 246 176 249 170 255 c 2
 133 293 l 1
 126 285 113 268 105 258 c 0
 99 250 90 246 79 246 c 0
 61 246 46 261 46 279 c 0
 46 287 48 295 53 301 c 0
 60 310 72 324 78 331 c 1
 68 336 57 341 44 347 c 0
 33 352 25 364 25 377 c 0
 25 395 40 411 58 411 c 0
EndSplineSet
Validated: 33
EndChar

StartChar: plus
Encoding: 10 43 72
Width: 320
Flags: W
HStem: 0 21G<154 172> 118 67<28.4854 128 196 260 261 289.187> 280 20G<152 170>
VStem: 130 66<3.12434 119 188 295.972>
LayerCount: 2
Fore
SplineSet
129 119 m 5
 83 118 60 118 59 118 c 4
 41 118 25 134 25 152 c 4
 25 170 39 184 57 185 c 4
 88 186 104 185 128 186 c 5
 128 213 129 232 128 266 c 6
 127 266 l 4
 127 284 143 300 161 300 c 4
 179 300 194 285 194 267 c 4
 195 233 195 215 195 188 c 5
 217 189 232 188 260 189 c 6
 261 190 l 4
 279 190 295 174 295 156 c 4
 295 138 281 124 263 123 c 4
 235 122 219 122 196 121 c 5
 196 92 195 71 196 34 c 6
 197 34 l 4
 197 16 181 0 163 0 c 4
 145 0 130 15 130 33 c 4
 129 69 129 90 129 119 c 5
EndSplineSet
Validated: 33
EndChar

StartChar: comma
Encoding: 11 44 73
Width: 177
Flags: W
HStem: -93 187<87.7428 89.2544>
VStem: 25 64<-89.3743 -44.2344>
LayerCount: 2
Fore
SplineSet
118 94 m 4
 136 94 152 78 152 60 c 4
 152 55 150 50 148 45 c 4
 147 44 90 -72 89 -74 c 4
 84 -85 72 -93 59 -93 c 4
 41 -93 25 -77 25 -59 c 4
 25 -54 27 -49 29 -44 c 4
 29 -43 87 74 88 75 c 4
 93 86 105 94 118 94 c 4
EndSplineSet
Validated: 1
EndChar

StartChar: hyphen
Encoding: 12 45 74
Width: 327
Flags: W
HStem: 116 67<28.4854 267.953> 127 67<59.0469 298.515>
VStem: 25 277<130.047 179.953>
LayerCount: 2
Fore
SplineSet
270 127 m 0x60
 60 117 60 116 59 116 c 0
 41 116 25 132 25 150 c 0
 25 168 39 182 57 183 c 0xa0
 267 193 267 194 268 194 c 0
 286 194 302 178 302 160 c 0
 302 142 288 128 270 127 c 0x60
EndSplineSet
Validated: 1
EndChar

StartChar: period
Encoding: 13 46 75
Width: 116
Flags: W
HStem: 0 67<28.2926 87.7074>
VStem: 25 66<3.12434 64.0499>
LayerCount: 2
Fore
SplineSet
58 35 m 1048
25 34 m 0
 25 52 40 67 58 67 c 4
 76 67 91 52 91 34 c 0
 91 16 76 0 58 0 c 0
 40 0 25 16 25 34 c 0
EndSplineSet
Validated: 1
EndChar

StartChar: slash
Encoding: 14 47 76
Width: 340
Flags: W
HStem: 447 20G<274 290>
VStem: 25 65<-107.463 -48.5324> 250 65<405.515 463.515>
LayerCount: 2
Fore
SplineSet
281 467 m 0
 299 467 315 451 315 433 c 0
 315 428 314 424 312 420 c 0
 236 240 166 89 90 -90 c 0
 89 -93 80 -111 59 -111 c 0
 41 -111 25 -95 25 -77 c 0
 25 -72 26 -68 28 -64 c 0
 104 116 174 268 250 447 c 0
 255 459 267 467 281 467 c 0
EndSplineSet
Validated: 1
EndChar

StartChar: colon
Encoding: 25 58 77
Width: 119
Flags: W
HStem: 30 67<29.4854 90.5146> 192 68<28.2926 88.5146>
VStem: 26 68<33.4854 93.7074 196.673 255.327>
LayerCount: 2
Fore
SplineSet
25 226 m 4
 25 244 40 260 58 260 c 4
 76 260 92 244 92 226 c 4
 92 208 76 192 58 192 c 4
 40 192 25 208 25 226 c 4
26 64 m 0
 26 82 42 97 60 97 c 0
 78 97 94 82 94 64 c 0
 94 46 78 30 60 30 c 0
 42 30 26 46 26 64 c 0
EndSplineSet
Validated: 1
EndChar

StartChar: semicolon
Encoding: 26 59 78
Width: 180
Flags: W
HStem: 192 68<91.2926 151.515>
VStem: 25 64<-89.3743 -44.2344> 88 67<37.1719 88.8968 195.485 256.515>
LayerCount: 2
Fore
SplineSet
118 94 m 0xa0
 136 94 152 78 152 60 c 0
 152 55 150 50 148 45 c 0
 147 44 90 -72 89 -74 c 0
 84 -85 72 -93 59 -93 c 0
 41 -93 25 -77 25 -59 c 0xc0
 25 -54 27 -49 29 -44 c 0
 29 -43 87 74 88 75 c 0
 93 86 105 94 118 94 c 0xa0
88 226 m 0xa0
 88 244 103 260 121 260 c 0
 139 260 155 244 155 226 c 0
 155 208 139 192 121 192 c 0
 103 192 88 208 88 226 c 0xa0
EndSplineSet
Validated: 1
EndChar

StartChar: less
Encoding: 27 60 79
Width: 299
Flags: W
HStem: 0 62<201.908 256.05> 280 20G<237.5 250>
VStem: 25 249
LayerCount: 2
Fore
SplineSet
241 300 m 0
 259 300 274 285 274 267 c 0
 274 255 268 244 259 238 c 0
 198 199 127 170 95 144 c 1
 116 115 192 88 243 62 c 0
 253 57 259 45 259 33 c 0
 259 15 244 0 226 0 c 0
 220 0 213 2 208 5 c 0
 165 26 115 43 69 76 c 0
 48 91 25 115 25 149 c 0
 25 187 63 208 149 254 c 0
 179 270 196 280 223 295 c 0
 228 298 234 300 241 300 c 0
EndSplineSet
Validated: 1
EndChar

StartChar: equal
Encoding: 28 61 80
Width: 327
Flags: W
HStem: 37 67<28.6521 59> 45 67<268 298.348> 173 67<29.44 59> 183 67<59.1406 288.515>
VStem: 25 277<48.4478 100.552>
LayerCount: 2
Fore
SplineSet
59 173 m 0x28
 41 173 26 189 26 207 c 0
 26 225 40 239 58 240 c 0x28
 60 240 255 249 257 249 c 2
 258 249 257 250 258 250 c 0
 276 250 292 234 292 216 c 0
 292 198 278 184 260 183 c 0x18
 253 183 59 173 59 173 c 0x28
59 37 m 0x88
 41 37 25 53 25 71 c 0
 25 89 40 103 58 104 c 0x88
 65 104 268 112 268 112 c 0
 286 112 302 96 302 78 c 0
 302 60 287 46 269 45 c 0x48
 262 45 59 37 59 37 c 0x88
EndSplineSet
Validated: 1
EndChar

StartChar: greater
Encoding: 29 62 81
Width: 271
Flags: W
HStem: 0 21G<51 64> 280 20G<49 61.5>
VStem: 25 221
LayerCount: 2
Fore
SplineSet
40 238 m 0
 40 238 25 247 25 267 c 0
 25 285 40 300 58 300 c 0
 65 300 71 298 76 295 c 0
 132 259 206 236 234 200 c 0
 244 187 246 174 246 167 c 0
 246 119 197 87 139 49 c 0
 113 32 110 28 82 8 c 0
 76 4 68 0 60 0 c 0
 42 0 27 15 27 33 c 0
 27 50 38 59 38 59 c 0
 94 107 152 130 176 163 c 1
 149 185 90 206 40 238 c 0
EndSplineSet
Validated: 1
EndChar

StartChar: question
Encoding: 30 63 82
Width: 281
Flags: W
HStem: 0 67<48.2926 107.707> 400 67<28.6259 114.915>
VStem: 45 66<3.12434 64.0499> 189 67<329.588 379>
LayerCount: 2
Fore
SplineSet
25 433 m 0
 25 451 41 467 59 467 c 0
 60 467 72 465 117 465 c 0
 170 465 213 460 239 430 c 0
 256 411 256 388 256 379 c 0
 256 293 174 232 111 184 c 0
 97 174 93 171 82 171 c 0
 64 171 49 186 49 204 c 0
 49 215 54 225 62 231 c 0
 128 281 189 327 189 379 c 0
 189 379 190 386 188 387 c 0
 176 397 108 396 57 400 c 0
 40 401 25 415 25 433 c 0
45 34 m 0
 45 52 60 67 78 67 c 0
 96 67 111 52 111 34 c 0
 111 16 96 0 78 0 c 0
 60 0 45 16 45 34 c 0
EndSplineSet
Validated: 1
EndChar

StartChar: at
Encoding: 31 64 83
Width: 544
Flags: W
HStem: -233 67<182.602 297.819> -9 67<205.881 257.673> 258 67<297.648 347.758> 400 67<245.009 397.328>
VStem: 25 67<-48.3568 219.904> 137 67<58.6946 148.114> 349 67<192.495 257.276> 452 67<68.7542 313.572>
LayerCount: 2
Fore
SplineSet
426 58 m 1
 438 70 451 108 452 170 c 0
 454 300 425 378 378 392 c 0
 357 398 338 400 319 400 c 0
 255 400 199 356 151 302 c 0
 121 269 92 179 92 79 c 0
 92 22 102 -133 222 -163 c 0
 232 -165 241 -166 248 -166 c 0
 282 -166 304 -145 341 -104 c 0
 348 -97 355 -89 363 -81 c 0
 369 -75 377 -70 387 -70 c 0
 405 -70 420 -86 420 -104 c 0
 420 -113 417 -121 411 -127 c 0
 404 -134 398 -142 391 -149 c 0
 357 -187 316 -233 248 -233 c 0
 212 -233 148 -219 98 -161 c 0
 44 -97 25 -7 25 79 c 0
 25 139 34 197 50 247 c 0
 63 287 79 321 101 346 c 0
 158 410 232 467 319 467 c 0
 344 467 370 463 396 456 c 0
 481 433 519 280 519 170 c 0
 519 128 513 63 484 23 c 0
 470 4 449 -12 421 -12 c 0
 397 -12 372 1 344 74 c 1
 316 34 273 -9 224 -9 c 0
 183 -9 137 27 137 89 c 0
 137 187 250 325 341 325 c 0
 376 325 416 304 416 255 c 0
 416 230 406 203 396 178 c 0
 392 168 389 160 388 156 c 0
 389 152 406 86 426 58 c 1
349 255 m 0
 349 256 348 256 348 257 c 0
 346 258 344 258 341 258 c 0
 309 258 248 205 218 140 c 0
 209 120 204 102 204 89 c 0
 204 77 207 70 212 65 c 0
 218 59 221 58 224 58 c 0
 242 58 282 90 317 159 c 0
 318 161 320 163 321 165 c 0
 324 187 349 232 349 255 c 0
EndSplineSet
Validated: 33
EndChar

StartChar: bracketleft
Encoding: 58 91 84
Width: 299
Flags: W
HStem: -233 69<93 194.419> 392 67<113.791 270.707> 400 67<103.094 239.477>
VStem: 25 68<-164 20.4754> 36 67<203.752 400>
LayerCount: 2
Fore
SplineSet
25 -190 m 0xb0
 25 -25 36 177 36 419 c 0
 36 428 39 458 82 465 c 0
 92 467 102 467 112 467 c 0xa8
 150 467 202 460 241 459 c 0
 259 459 274 444 274 426 c 0
 274 408 259 392 241 392 c 0xc8
 209 392 145 400 112 400 c 0
 109 400 106 400 103 400 c 0xa8
 103 274 100 157 97 54 c 0
 95 -25 93 -98 93 -164 c 1
 145 -163 183 -154 195 -154 c 0
 213 -154 229 -170 229 -188 c 0
 229 -203 219 -218 205 -220 c 0
 130 -233 98 -233 77 -233 c 0
 28 -233 25 -197 25 -190 c 0xb0
EndSplineSet
Validated: 1
EndChar

StartChar: backslash
Encoding: 59 92 85
Width: 266
Flags: W
HStem: 447 20G<50 66.5>
LayerCount: 2
Fore
SplineSet
25 433 m 0
 25 451 41 467 59 467 c 0
 74 467 87 456 91 442 c 0
 141 255 189 97 239 -91 c 0
 240 -94 241 -97 241 -100 c 0
 241 -118 225 -134 207 -134 c 0
 192 -134 179 -123 175 -109 c 0
 115 115 87 200 27 425 c 0
 26 428 25 430 25 433 c 0
EndSplineSet
Validated: 1
EndChar

StartChar: bracketright
Encoding: 60 93 86
Width: 314
Flags: W
HStem: -233 73<31.2612 191.949> 391 67<68.2926 219.394> 447 20G<214 242>
VStem: 221 65<188.137 400>
LayerCount: 2
Fore
SplineSet
221 400 m 1xb0
 187 398 136 392 99 391 c 0
 98 391 l 0
 80 391 65 407 65 425 c 0
 65 443 80 458 98 458 c 0xd0
 137 459 196 467 232 467 c 0
 252 467 260 464 266 461 c 0
 273 458 289 448 289 428 c 0
 289 427 288 415 286 331 c 0
 280 118 275 -81 255 -196 c 0
 248 -233 202 -233 180 -233 c 0
 155 -233 70 -228 57 -227 c 0
 39 -226 25 -212 25 -194 c 0
 25 -176 40 -160 58 -160 c 0
 73 -160 148 -166 180 -166 c 0
 185 -166 191 -170 192 -166 c 0
 208 -57 213 97 221 400 c 1xb0
EndSplineSet
Validated: 1
EndChar

StartChar: asciicircum
Encoding: 61 94 87
Width: 225
Flags: W
HStem: 300 167<135.626 166.482>
VStem: 25 175<316 337>
LayerCount: 2
Fore
SplineSet
85 313 m 0
 85 313 76 300 58 300 c 0
 40 300 25 315 25 333 c 0
 25 341 27 348 31 354 c 0
 61 394 83 437 106 456 c 0
 112 461 121 467 134 467 c 0
 142 467 156 465 167 448 c 0
 182 425 184 388 198 343 c 0
 199 340 200 337 200 334 c 0
 200 316 184 300 166 300 c 0
 151 300 138 310 134 324 c 0
 130 338 135 321 123 369 c 1
 86 313 100 313 85 313 c 0
EndSplineSet
Validated: 1
EndChar

StartChar: underscore
Encoding: 62 95 88
Width: 322
Flags: W
HStem: -184 67<28.4854 292.327>
VStem: 25 272<-180.51 -123.49>
LayerCount: 2
Fore
SplineSet
25 -151 m 0
 25 -133 41 -117 59 -117 c 0
 60 -117 81 -118 161 -119 c 0
 192 -119 223 -119 263 -120 c 0
 281 -120 297 -135 297 -153 c 0
 297 -171 281 -187 263 -187 c 0
 262 -187 241 -186 161 -185 c 0
 130 -185 99 -185 59 -184 c 0
 41 -184 25 -169 25 -151 c 0
EndSplineSet
Validated: 1
EndChar

StartChar: grave
Encoding: 63 96 89
Width: 190
Flags: W
HStem: 300 167
VStem: 25 140
LayerCount: 2
Fore
SplineSet
25 434 m 0
 25 452 40 467 58 467 c 0
 69 467 79 462 85 454 c 0
 86 453 158 355 159 354 c 0
 163 348 165 341 165 333 c 0
 165 315 150 300 132 300 c 0
 121 300 111 305 105 313 c 0
 104 314 32 412 31 413 c 0
 27 419 25 426 25 434 c 0
EndSplineSet
Validated: 1
EndChar

StartChar: braceleft
Encoding: 90 123 90
Width: 284
Flags: W
HStem: -233 67<158.117 217.17> 400 67<169.152 234.503>
VStem: 70 66<-143.556 55.9885>
LayerCount: 2
Fore
SplineSet
259 420 m 0
 259 402 243 387 225 387 c 0
 219 387 214 388 209 391 c 0
 196 398 188 400 185 400 c 0
 175 400 165 374 161 351 c 0
 150 294 149 209 142 129 c 0
 140 109 131 96 120 87 c 1
 127 79 135 66 136 45 c 0
 140 -57 149 -146 165 -166 c 0
 166 -166 l 0
 169 -166 174 -166 182 -164 c 2
 184 -164 187 -163 189 -163 c 0
 207 -163 222 -179 222 -197 c 0
 222 -213 210 -226 195 -229 c 0
 186 -231 177 -233 166 -233 c 0
 108 -233 92 -175 86 -148 c 0
 77 -108 73 -49 70 42 c 1
 55 56 60 49 47 59 c 0
 41 63 25 73 25 86 c 0
 25 99 37 105 49 114 c 0
 61 123 64 125 76 139 c 1
 78 166 80 194 82 221 c 0
 89 338 94 425 147 457 c 0
 158 464 171 467 185 467 c 0
 205 467 223 460 242 449 c 0
 252 443 259 432 259 420 c 0
EndSplineSet
Validated: 1
EndChar

StartChar: bar
Encoding: 91 124 91
Width: 132
Flags: W
HStem: 447 20G<64 82>
VStem: 25 66<-230.05 -200> 40 67<434 463.707>
LayerCount: 2
Fore
SplineSet
73 467 m 0xa0
 91 467 107 452 107 434 c 0xa0
 107 434 105 377 91 -200 c 0
 91 -218 76 -233 58 -233 c 0
 40 -233 25 -218 25 -200 c 0xc0
 25 -200 26 -143 40 434 c 0
 40 452 55 467 73 467 c 0xa0
EndSplineSet
Validated: 1
EndChar

StartChar: braceright
Encoding: 92 125 92
Width: 326
Flags: W
HStem: -233 68<28.5339 118.664> 400 67<58.83 148.74>
VStem: 172 66<167.785 373.107>
LayerCount: 2
Fore
SplineSet
115 400 m 0
 102 400 94 397 87 397 c 0
 69 397 54 412 54 430 c 0
 54 446 65 460 80 463 c 0
 92 466 104 467 115 467 c 0
 141 467 165 459 183 444 c 0
 237 400 237 307 238 217 c 0
 238 202 238 188 238 175 c 1
 254 168 265 167 279 157 c 0
 285 153 301 140 301 117 c 0
 301 82 273 65 255 54 c 0
 246 48 238 46 238 42 c 0
 231 -66 208 -172 138 -215 c 0
 118 -227 96 -233 72 -233 c 0
 66 -233 61 -233 55 -232 c 0
 38 -230 25 -216 25 -199 c 0
 25 -181 41 -165 59 -165 c 0
 60 -165 62 -165 63 -165 c 2
 66 -165 69 -166 72 -166 c 0
 89 -166 119 -164 143 -105 c 0
 158 -69 168 -17 172 48 c 0
 174 82 202 100 218 110 c 1
 202 116 173 131 172 165 c 0
 171 182 171 199 171 216 c 0
 171 280 170 367 140 392 c 0
 134 397 128 400 115 400 c 0
EndSplineSet
Validated: 1
EndChar

StartChar: asciitilde
Encoding: 93 126 93
Width: 432
Flags: W
HStem: 133 67<117.918 176.669>
LayerCount: 2
Fore
SplineSet
86 65 m 0
 86 65 77 50 58 50 c 0
 40 50 25 65 25 83 c 0
 25 90 27 96 30 101 c 0
 33 106 36 112 40 118 c 0
 61 152 90 200 148 200 c 0
 204 200 229 158 244 133 c 0
 251 122 255 116 258 113 c 0
 290 115 304 130 329 167 c 0
 339 182 342 187 346 192 c 0
 352 200 362 206 373 206 c 0
 391 206 407 190 407 172 c 0
 407 164 404 158 400 152 c 0
 395 145 389 138 384 130 c 0
 360 94 330 50 261 46 c 0
 260 46 258 45 257 45 c 0
 219 45 200 77 187 98 c 0
 172 123 165 133 148 133 c 0
 131 133 119 119 97 83 c 0
 93 77 90 71 86 65 c 0
EndSplineSet
Validated: 1
EndChar

StartChar: cent
Encoding: 113 162 113
Width: 304
Flags: W
HStem: 70 67<94.1795 118> 323 67<201 254.515>
VStem: 25 67<139.166 236.005> 118 69<1.86416 72.2854 157 259.126>
LayerCount: 2
Fore
SplineSet
205 438 m 0
 205 438 203 421 201 389 c 1
 206 389 210 390 215 390 c 0
 219 390 222 389 226 389 c 0
 244 388 258 374 258 356 c 0
 258 338 242 322 224 322 c 0
 222 322 220 323 215 323 c 0
 208 323 202 322 196 321 c 1
 190 246 186 209 185 157 c 1
 189 159 192 160 196 162 c 0
 234 182 237 184 245 184 c 0
 263 184 279 168 279 150 c 0
 279 137 270 125 259 120 c 0
 232 107 210 92 185 82 c 1
 186 57 187 33 187 32 c 0
 187 14 171 -2 153 -2 c 0
 135 -2 121 12 120 30 c 0
 119 44 118 57 118 70 c 1
 87 72 25 85 25 164 c 0
 25 215 59 320 132 366 c 1
 134 389 136 413 138 440 c 0
 139 458 153 472 171 472 c 0
 189 472 205 456 205 438 c 0
92 164 m 0
 92 156 93 150 95 147 c 0
 97 143 97 142 103 140 c 0
 108 138 113 138 118 137 c 1
 119 182 121 221 124 261 c 1
 114 244 104 223 97 198 c 0
 94 186 92 174 92 164 c 0
EndSplineSet
Validated: 1
EndChar

StartChar: ordfeminine
Encoding: 114 170 114
Width: 258
Flags: W
HStem: 193 52<98 122.848>
VStem: 25 67<245.294 309.462> 164 67<190.534 224>
LayerCount: 2
Fore
SplineSet
99 193 m 0
 63 193 25 208 25 259 c 0
 25 289 36 319 46 335 c 0
 76 384 128 412 175 412 c 0
 198 412 232 403 233 374 c 0
 233 372 233 369 233 367 c 0
 233 365 233 368 233 366 c 0
 233 357 233 343 233 327 c 0
 233 283 233 240 231 217 c 0
 229 200 215 187 198 187 c 0
 180 187 164 203 164 221 c 0
 164 222 165 222 165 224 c 1
 148 207 126 193 99 193 c 0
92 259 m 0
 92 245 98 245 98 245 c 0
 103 245 117 254 132 276 c 0
 146 297 159 319 164 343 c 1
 142 337 107 319 95 280 c 0
 93 273 92 265 92 259 c 0
EndSplineSet
Validated: 1
EndChar

StartChar: logicalnot
Encoding: 115 172 115
Width: 342
Flags: W
HStem: 52 159<249.26 308.327> 144 67<29.6734 248.015>
VStem: 248 69<57.6953 143>
LayerCount: 2
Fore
SplineSet
210 144 m 0x60
 183 144 61 141 59 141 c 0
 41 141 25 157 25 175 c 0
 25 193 41 208 59 208 c 0
 61 208 183 211 210 211 c 0x60
 241 211 265 210 284 207 c 0
 290 206 312 200 316 171 c 0
 317 166 317 161 317 156 c 0
 317 135 313 105 313 85 c 0
 313 67 297 52 279 52 c 0xa0
 261 52 245 67 245 85 c 0
 245 98 247 113 248 126 c 0
 248 132 249 138 249 143 c 1
 238 143 225 144 210 144 c 0x60
EndSplineSet
Validated: 1
EndChar

StartChar: macron
Encoding: 116 175 116
Width: 0
Flags: W
HStem: 523.502 67<-277.05 -4.04594>
VStem: -280.012 280.012<526.703 585.297>
LayerCount: 2
Fore
SplineSet
-280.01171875 557 m 0
 -280.01171875 575.489257812 -265 590.674804688 -246.51171875 590.501953125 c 0
 -33.1796875 588.498046875 -33.1796875 588.498046875 -33.1796875 588.498046875 c 2
 -14.837890625 588.326171875 0 573.381835938 0 555 c 0
 0 536.510742188 -15.01171875 521.325195312 -33.5 521.498046875 c 0
 -246.8203125 523.501953125 -246.8203125 523.501953125 -246.8203125 523.501953125 c 2
 -265.173828125 523.673828125 -280.01171875 538.618164062 -280.01171875 557 c 0
EndSplineSet
Validated: 33
EndChar

StartChar: degree
Encoding: 117 176 117
Width: 219
Flags: W
HStem: 337 67<92.5584 125.774>
VStem: 25 67<280.238 336.309> 127 67<287.62 336.443>
LayerCount: 2
Fore
SplineSet
127 315 m 0
 127 325 117 337 104 337 c 0
 99 337 97 337 95 329 c 0
 94 324 92 318 92 310 c 0
 92 300 94 289 96 280 c 1
 96 280 127 296 127 315 c 0
104 404 m 0
 155 404 194 361 194 315 c 0
 194 288 181 262 157 241 c 0
 137 224 116 211 91 211 c 0
 83 211 46 214 33 258 c 0
 29 273 25 291 25 310 c 0
 25 376 63 404 104 404 c 0
EndSplineSet
Validated: 1
EndChar

StartChar: plusminus
Encoding: 118 177 118
Width: 249
Flags: W
HStem: 0 67<28.6521 217.707> 170 69<34.8642 91 159 189.984 190 218.745> 280 20G<119 137>
VStem: 25 196<3.48541 64.0499 178.586 231.508> 92 66<98.9501 168 237.423 295.484>
LayerCount: 2
Fore
SplineSet
158 168 m 0xe8
 158 165 158 131 158 129 c 0
 158 111 143 96 125 96 c 0
 107 96 92 111 92 129 c 0
 92 137 91 170 91 170 c 0
 84 170 74 171 63 172 c 0
 45 173 31 187 31 205 c 0
 31 223 47 239 65 239 c 0
 68 239 92 237 92 237 c 0
 93 246 94 256 95 269 c 0
 96 286 110 300 128 300 c 0
 146 300 162 284 162 266 c 0
 162 265 159 235 159 235 c 1
 168 235 190 236 190 236 c 0
 208 236 224 220 224 202 c 0
 224 184 209 170 191 169 c 0
 177 168 167 168 158 168 c 0xe8
98 1 m 0
 81 1 60 0 59 0 c 0
 41 0 25 16 25 34 c 0
 25 52 40 67 58 67 c 0
 76 67 89 68 98 68 c 0
 99 68 148 67 149 67 c 0
 166 67 187 67 188 67 c 0
 206 67 221 52 221 34 c 0xf0
 221 16 206 0 188 0 c 0
 170 0 158 0 149 0 c 0
 148 0 99 1 98 1 c 0
EndSplineSet
Validated: 1
EndChar

StartChar: uni00B2
Encoding: 119 178 119
Width: 302
Flags: W
HStem: 187 78<117.855 266.084>
VStem: 179 67<425.757 469>
LayerCount: 2
Fore
SplineSet
116 255 m 1
 155 257 231 265 244 265 c 0
 262 265 277 250 277 232 c 0
 277 214 264 199 246 198 c 0
 202 195 133 187 91 187 c 0
 67 187 58 189 52 192 c 0
 46 195 27 205 27 227 c 0
 27 235 30 242 32 246 c 0
 93 357 179 425 179 469 c 0
 149 465 107 449 77 430 c 0
 72 427 66 424 59 424 c 0
 41 424 25 440 25 458 c 0
 25 470 32 480 41 486 c 0
 47 490 126 537 185 537 c 0
 199 537 225 534 237 509 c 0
 243 496 246 482 246 469 c 0
 246 422 212 384 170 330 c 0
 150 305 136 285 116 255 c 1
EndSplineSet
Validated: 1
EndChar

StartChar: uni00B3
Encoding: 120 179 120
Width: 266
Flags: W
HStem: 187 67<34.5644 169.745> 197 66<28.2715 139.872> 470 67<65.2896 173.073>
VStem: 174 67<256.955 309.146 415.726 468.893>
LayerCount: 2
Fore
SplineSet
153 470 m 0xb0
 123 470 84 459 76 459 c 0
 58 459 43 474 43 492 c 0
 43 508 54 522 69 525 c 0
 100 532 127 537 153 537 c 0
 171 537 189 534 206 525 c 0
 219 518 241 500 241 462 c 0
 241 453 236 400 197 363 c 1
 217 351 241 327 241 285 c 0
 241 280 242 245 219 217 c 0
 200 194 171 187 141 187 c 0xb0
 117 187 89 191 53 197 c 0
 37 200 25 213 25 230 c 0
 25 248 41 263 59 263 c 0
 61 263 62 263 64 263 c 2
 65 263 l 2x70
 99 257 124 254 141 254 c 0
 164 254 166 258 167 259 c 0
 171 264 174 275 174 285 c 0
 174 300 168 306 138 316 c 0
 126 320 120 322 113 327 c 0
 108 331 97 341 97 358 c 0
 97 381 116 391 127 396 c 0
 146 405 167 419 173 454 c 0
 174 457 174 460 174 462 c 0
 174 465 173 466 173 467 c 0
 172 468 166 470 153 470 c 0xb0
EndSplineSet
Validated: 33
EndChar

StartChar: mu
Encoding: 121 181 121
Width: 276
Flags: W
HStem: 0 67<127.42 171.891> 280 20G<86 103.5 208 226>
VStem: 25 67<-227.451 11.6072> 61 67<161.156 296.515> 184 67<75.5 265.994 266 296.515>
LayerCount: 2
Fore
SplineSet
184 174 m 0xd8
 184 175 183 246 183 247 c 0
 183 254 184 261 184 268 c 0
 185 286 199 300 217 300 c 0
 235 300 251 284 251 266 c 0
 251 266 250 258 250 247 c 0
 250 226 251 197 251 174 c 0
 251 127 252 16 159 1 c 0
 154 0 149 0 144 0 c 0
 133 0 116 3 100 14 c 1
 95 -37 92 -91 92 -131 c 0
 92 -179 97 -192 97 -199 c 0
 97 -217 81 -233 63 -233 c 0
 46 -233 33 -221 30 -205 c 0
 26 -183 25 -159 25 -131 c 0xe8
 25 -46 43 59 52 197 c 0
 54 234 61 271 61 272 c 0
 64 288 78 300 94 300 c 0
 113 300 128 284 128 266 c 0
 128 251 118 205 118 159 c 0
 118 141 119 93 134 73 c 0
 138 68 141 67 144 67 c 0
 173 67 184 100 184 174 c 0xd8
EndSplineSet
Validated: 33
EndChar

StartChar: periodcentered
Encoding: 122 183 122
Width: 118
Flags: W
HStem: 112 66<28.1243 89.8757>
VStem: 25 68<115.293 174.707>
LayerCount: 2
Fore
SplineSet
25 145 m 0
 25 163 41 178 59 178 c 0
 77 178 93 163 93 145 c 0
 93 127 77 112 59 112 c 0
 41 112 25 127 25 145 c 0
EndSplineSet
Validated: 1
EndChar

StartChar: uni00B9
Encoding: 123 185 123
Width: 126
Flags: W
VStem: 25 67<190.293 220 220.01 466.34> 30 71<288.04 532.04>
LayerCount: 2
Fore
SplineSet
92 250 m 0x80
 92 234 93 220 93 220 c 0
 93 202 77 187 59 187 c 0
 41 187 26 202 26 220 c 0
 26 230 25 240 25 250 c 0x80
 25 320 27 373 30 433 c 0
 31 460 33 473 34 505 c 0
 35 523 49 537 67 537 c 0
 85 537 101 522 101 504 c 0x40
 101 477 92 367 92 250 c 0x80
EndSplineSet
Validated: 1
EndChar

StartChar: ordmasculine
Encoding: 124 186 124
Width: 251
Flags: W
HStem: 187 67<92.6556 152.382> 345 67<111.399 150>
VStem: 25 67<254.306 327.403> 159 67<263.146 307>
LayerCount: 2
Fore
SplineSet
117 254 m 0
 130 254 144 258 151 263 c 0
 152 266 159 276 159 307 c 0
 159 307 158 335 150 344 c 0
 150 345 l 4
 148 345 147 345 146 345 c 4
 112 345 92 305 92 269 c 0
 92 261 92 254 117 254 c 0
25 269 m 0
 25 348 75 412 146 412 c 0
 199 412 226 369 226 307 c 0
 226 298 228 238 195 212 c 0
 173 194 144 187 117 187 c 0
 100 187 56 190 35 225 c 0
 26 240 25 254 25 269 c 0
EndSplineSet
Validated: 33
EndChar

StartChar: multiply
Encoding: 125 215 125
Width: 322
Flags: W
HStem: 0 21G<49 63.5 258.5 273> 280 20G<66 80 246 261>
VStem: 25 272<15 40>
LayerCount: 2
Fore
SplineSet
42 267 m 0
 42 285 57 300 75 300 c 0
 85 300 94 296 100 289 c 0
 124 262 145 236 165 212 c 1
 185 235 206 259 224 285 c 0
 230 294 240 300 252 300 c 0
 270 300 285 285 285 267 c 0
 285 260 284 253 280 248 c 0
 258 215 232 186 208 159 c 1
 229 133 233 130 291 54 c 0
 295 48 297 41 297 33 c 0
 297 15 282 0 264 0 c 0
 253 0 243 5 237 13 c 0
 192 71 186 80 163 109 c 1
 136 80 113 53 85 14 c 0
 79 6 69 0 58 0 c 0
 40 0 25 15 25 33 c 0
 25 40 27 47 31 53 c 0
 64 99 91 130 120 162 c 1
 99 188 76 215 50 244 c 0
 45 250 42 259 42 267 c 0
EndSplineSet
Validated: 1
EndChar

StartChar: divide
Encoding: 126 247 126
Width: 310
Flags: W
HStem: 0 67<121.485 182.515> 112 67<29.2603 279.247> 233 67<133.485 194.515>
VStem: 118 68<3.48541 63.7074> 130 68<236.293 296.515>
LayerCount: 2
Fore
SplineSet
140 179 m 0xe0
 196 179 250 184 251 184 c 0
 269 184 285 168 285 150 c 0
 285 132 271 118 254 117 c 0
 210 113 176 112 140 112 c 0
 115 112 89 113 58 114 c 0
 40 115 25 129 25 147 c 0
 25 165 41 181 59 181 c 0
 62 181 101 179 140 179 c 0xe0
130 266 m 0xe8
 130 284 146 300 164 300 c 0
 182 300 198 284 198 266 c 0
 198 248 182 233 164 233 c 0
 146 233 130 248 130 266 c 0xe8
118 34 m 0xf0
 118 52 134 67 152 67 c 0
 170 67 186 52 186 34 c 0
 186 16 170 0 152 0 c 0
 134 0 118 16 118 34 c 0xf0
EndSplineSet
Validated: 1
EndChar

StartChar: ellipsis
Encoding: 127 8230 127
Width: 328
Flags: W
HStem: 0 67<28.4854 89.5146 132.485 193.515 238.485 299.515>
VStem: 25 68<3.48541 63.7074> 129 68<3.48541 63.7074> 235 68<3.48541 63.7074>
LayerCount: 2
Fore
SplineSet
25 34 m 0
 25 52 41 67 59 67 c 0
 77 67 93 52 93 34 c 0
 93 16 77 0 59 0 c 0
 41 0 25 16 25 34 c 0
129 34 m 0
 129 52 145 67 163 67 c 0
 181 67 197 52 197 34 c 0
 197 16 181 0 163 0 c 0
 145 0 129 16 129 34 c 0
235 34 m 0
 235 52 251 67 269 67 c 0
 287 67 303 52 303 34 c 0
 303 16 287 0 269 0 c 0
 251 0 235 16 235 34 c 0
EndSplineSet
Validated: 1
EndChar

StartChar: uniE000
Encoding: 128 57344 128
Width: 1542
Flags: W
HStem: 0 67<97.2361 216.098 405.79 469.434 915.322 1015.63> 31 71<208.318 292.844> 118 67<1109.49 1209 1277 1341 1342 1370.19> 280 20G<450 515.5 646 664 794.5 806 968.5 994 1233 1251 1468 1486> 400 67<1454.29 1513.71>
VStem: 25 67<73.1359 152.549> 337 67<68.3218 165.934> 505 67<115.66 231.115> 610 69<4.32452 140.229> 622 65<230.345 265.989 266 297.219> 979 67<168.474 230.684> 1211 66<3.12434 119 188 295.972> 1430 81<42.7067 257.293> 1451 66<403.124 464.05>
LayerCount: 2
Fore
SplineSet
1477 300 m 0xbf38
 1495 300 1511 284 1511 266 c 0
 1511 265 1510 264 1497 32 c 0
 1496 14 1482 0 1464 0 c 0
 1446 0 1430 16 1430 34 c 0
 1430 35 1431 36 1444 268 c 0
 1445 286 1459 300 1477 300 c 0xbf38
1451 434 m 0x3f34
 1451 452 1466 467 1484 467 c 0
 1502 467 1517 452 1517 434 c 0
 1517 416 1502 400 1484 400 c 0
 1466 400 1451 416 1451 434 c 0x3f34
1210 119 m 1
 1164 118 1141 118 1140 118 c 0
 1122 118 1106 134 1106 152 c 0
 1106 170 1120 184 1138 185 c 0
 1169 186 1185 185 1209 186 c 1
 1209 213 1210 232 1209 266 c 2
 1208 266 l 0
 1208 284 1224 300 1242 300 c 0
 1260 300 1275 285 1275 267 c 0
 1276 233 1276 215 1276 188 c 1
 1298 189 1313 188 1341 189 c 2
 1342 190 l 0
 1360 190 1376 174 1376 156 c 0
 1376 138 1362 124 1344 123 c 0
 1316 122 1300 122 1277 121 c 1
 1277 92 1276 71 1277 34 c 2
 1278 34 l 0
 1278 16 1262 0 1244 0 c 0xbf30
 1226 0 1211 15 1211 33 c 0
 1210 69 1210 90 1210 119 c 1
915 76 m 1
 920 68 928 67 943 67 c 0xbf30
 957 67 982 68 1025 91 c 0
 1030 94 1035 95 1041 95 c 0
 1059 95 1075 79 1075 61 c 0
 1075 48 1068 37 1057 31 c 0x7f30
 1007 4 971 0 943 0 c 0
 927 0 910 3 894 11 c 0
 853 33 841 72 841 107 c 0
 841 123 842 138 846 152 c 0
 859 206 879 276 955 298 c 0
 960 299 966 300 971 300 c 0
 1017 300 1046 252 1046 204 c 0
 1046 190 1043 174 1035 160 c 0
 1014 122 977 82 915 76 c 1
979 204 m 0
 979 212 975 222 968 232 c 1
 939 221 926 194 913 144 c 1
 936 148 959 160 977 192 c 0
 977 193 979 198 979 204 c 0
679 65 m 0xbfb0
 679 38 680 35 680 34 c 0
 680 16 665 0 646 0 c 0
 629 0 615 12 613 29 c 0
 610 56 610 62 610 85 c 0xbfb0
 610 146 620 198 622 268 c 0
 623 286 637 300 655 300 c 0
 673 300 688 284 688 266 c 0
 688 266 688 251 687 228 c 1xbf70
 716 255 747 281 784 297 c 0
 788 299 792 300 797 300 c 0
 815 300 831 284 831 266 c 0
 831 252 822 241 810 236 c 0
 780 223 749 194 715 162 c 0
 707 155 700 148 692 141 c 1
 681 125 679 80 679 65 c 0xbfb0
508 300 m 0
 523 300 572 292 572 209 c 0
 572 175 564 137 553 104 c 0
 535 53 515 29 476 12 c 0
 458 4 439 0 420 0 c 0
 394 0 358 10 344 45 c 0
 338 59 337 74 337 90 c 0
 337 175 396 293 504 300 c 0
 505 300 507 300 508 300 c 0
503 232 m 1
 438 224 404 139 404 90 c 0
 404 80 406 73 407 69 c 0
 408 68 411 67 420 67 c 0
 436 67 457 75 469 86 c 0
 483 99 505 162 505 209 c 0
 505 219 504 228 503 232 c 1
92 99 m 0
 96 85 104 68 138 68 c 0
 169 68 210 84 237 94 c 0
 254 101 257 102 264 102 c 0
 282 102 298 86 298 68 c 0
 298 53 288 41 275 36 c 0
 272 35 268 33 262 31 c 0x7f30
 235 20 187 0 138 0 c 0
 119 0 98 4 79 14 c 0
 43 33 25 73 25 99 c 0
 25 177 155 362 254 458 c 0
 260 464 268 467 277 467 c 0
 295 467 311 452 311 434 c 0
 311 425 306 416 300 410 c 0
 221 333 133 208 102 134 c 0
 95 117 92 103 92 99 c 0
92 98 m 1
 92 98 l 1
EndSplineSet
Validated: 33
EndChar
